# This file uses centimeters as units for non-parametric coordinates.

mtllib GolemPart20.mtl
g default
v -7.093815 0.496450 1.575517
v -7.099123 0.000000 1.600766
v -6.321858 1.073544 0.403790
v -6.350452 0.000000 0.495713
v -7.397756 1.079176 -0.054670
v -7.426348 0.000000 0.037252
v -7.535649 0.496952 1.386536
v -7.540959 0.000000 1.411784
v -6.854638 1.277766 0.157944
v -6.893569 0.000000 0.283099
v -7.321000 0.000000 1.510839
v -7.313773 0.579194 1.476462
v -7.016604 0.268171 1.622302
v -7.361346 0.251586 1.610559
v -7.618168 0.268854 1.365001
v -7.606527 0.523073 -0.091578
v -6.799226 0.541690 0.020573
v -6.141681 0.515404 0.532621
v -6.679730 0.696980 1.147709
v -6.529553 0.392831 1.250251
v -6.699574 0.000000 1.216204
v -7.146019 0.000000 1.039670
v -7.585291 0.000000 0.838376
v -7.735468 0.397728 0.735834
v -7.565446 0.700576 0.769881
v -7.119002 0.864458 0.946414
vt 0.300075 0.188680
vt 0.293738 0.175655
vt 0.298386 0.170254
vt 0.307753 0.181133
vt 0.265911 0.206929
vt 0.280435 0.206540
vt 0.281261 0.216929
vt 0.270262 0.216691
vt 0.261946 0.170824
vt 0.266519 0.176622
vt 0.259883 0.190080
vt 0.252531 0.182128
vt 0.280312 0.163510
vt 0.274097 0.164200
vt 0.275705 0.159137
vt 0.280196 0.158829
vt 0.246484 0.173084
vt 0.257802 0.163511
vt 0.271588 0.179608
vt 0.280211 0.180366
vt 0.279930 0.195082
vt 0.269315 0.196260
vt 0.295258 0.205571
vt 0.292091 0.215550
vt 0.303316 0.163634
vt 0.314859 0.172976
vt 0.286359 0.163944
vt 0.284662 0.158972
vt 0.288822 0.178870
vt 0.290624 0.195291
vt 0.280317 0.169375
vt 0.284785 0.168241
vt 0.275729 0.168464
vt 0.288831 0.165885
vt 0.292751 0.162284
vt 0.295219 0.158752
vt 0.265868 0.158753
vt 0.267927 0.162561
vt 0.271688 0.166288
vn 0.854984 0.084068 0.511795
vn 0.808273 0.008524 0.588746
vn 0.775018 -0.356884 0.521518
vn 0.836054 -0.379633 0.396097
vn 0.237560 -0.099913 -0.966221
vn 0.389258 -0.086031 -0.917102
vn 0.372560 -0.317503 -0.872004
vn 0.248938 -0.316384 -0.915386
vn -0.934108 -0.348674 -0.076605
vn -0.998799 0.001910 -0.048960
vn -0.990493 0.078281 -0.113114
vn -0.908163 -0.373383 -0.189279
vn -0.390636 0.046250 0.919383
vn -0.595272 0.060948 0.801209
vn -0.577644 -0.210697 0.788628
vn -0.385203 -0.216393 0.897102
vn -0.000000 -1.000000 -0.000000
vn -0.000000 -1.000000 0.000000
vn -0.000000 -1.000000 -0.000000
vn -0.000000 -1.000000 -0.000000
vn -0.431046 0.850399 0.301698
vn -0.166636 0.894341 0.415195
vn -0.185231 0.894399 0.407112
vn -0.430410 0.850517 0.302272
vn 0.529975 -0.100570 -0.842028
vn 0.485655 -0.313425 -0.816029
vn -0.000000 -1.000000 -0.000000
vn 0.000000 -1.000000 -0.000000
vn -0.163093 0.063178 0.984586
vn -0.166636 -0.211176 0.963139
vn 0.103878 0.864158 0.492382
vn 0.105974 0.865682 0.489248
vn -0.378858 0.302168 0.874735
vn -0.149929 0.298690 0.942500
vn -0.575371 0.289633 0.764893
vn -0.913016 0.405948 -0.040106
vn -0.912931 0.407320 0.025448
vn 0.390301 0.107024 -0.914446
vn 0.216499 0.105212 -0.970597
vn 0.548530 0.105323 -0.829471
vn 0.689710 0.428671 0.583559
vn 0.740065 0.423677 0.522303
vn 0.509170 0.427033 0.747254
vn 0.630620 0.004309 0.776080
vn 0.642707 -0.304659 0.702930
vn -0.000000 -1.000000 0.000000
vn -0.000000 -1.000000 0.000000
vn -0.000000 -1.000000 0.000000
vn -0.988035 -0.008930 0.153971
vn -0.948475 -0.302245 0.095090
vn -0.890893 0.401517 0.212352
vn -0.432738 0.850080 0.300168
vn -0.167917 0.892201 0.419262
vn 0.099103 0.860637 0.499482
s 1
g player20
usemtl initialShadingGroup
f 18/1/1 20/2/2 21/3/3 4/4/4
s 2
f 16/5/5 17/6/6 10/7/7 6/8/8
s 3
f 23/9/9 24/10/10 16/11/11 6/12/12
s 4
f 14/13/13 15/14/14 8/15/15 11/16/16
s 5
f 10/17/17 22/18/18 23/9/19 6/12/20
s 6
f 25/19/21 26/20/22 9/21/23 5/22/24
s 2
f 17/6/6 18/23/25 4/24/26 10/7/7
s 5
f 21/3/27 22/25/18 10/26/17 4/4/28
s 4
f 13/27/29 14/13/13 11/16/16 2/28/30
s 6
f 9/21/23 26/20/22 19/29/31 3/30/32
s 4
f 12/31/33 14/13/13 13/27/29 1/32/34
f 7/33/35 15/14/14 14/13/13 12/31/33
s 3
f 5/22/36 16/11/11 24/10/10 25/19/37
s 2
f 9/21/38 17/6/6 16/5/5 5/22/39
f 3/30/40 18/23/25 17/6/6 9/21/38
s 1
f 19/29/41 20/2/2 18/1/1 3/30/42
f 1/32/43 13/34/44 20/2/2 19/29/41
f 21/3/3 20/2/2 13/34/44 2/35/45
s 5
f 2/35/46 11/36/47 22/25/18 21/3/27
f 23/9/19 22/18/18 11/37/47 8/38/48
s 3
f 15/39/49 24/10/10 23/9/9 8/38/50
f 25/19/37 24/10/10 15/39/49 7/33/51
s 6
f 7/33/52 12/31/53 26/20/22 25/19/21
f 19/29/31 26/20/22 12/31/53 1/32/54
