# This file uses centimeters as units for non-parametric coordinates.

mtllib GolemPart7.mtl
g default
v 3.517139 18.701397 -2.686572
v 3.684531 18.604288 -0.584617
v 2.422063 15.124047 -3.616252
v 3.705104 16.249743 -1.559356
v 3.747055 16.610794 0.850952
v 0.806136 13.549009 -2.048098
v 1.882589 13.488744 -0.211057
v 1.712568 14.375019 1.283384
v -1.441479 13.337166 -1.743325
v -0.952941 13.604500 0.612578
v -0.328673 14.579189 2.251954
v -3.098702 14.483774 -1.207342
v -3.613103 14.814530 0.832226
v -2.194429 15.310423 2.122938
v -3.400838 16.546404 -2.753085
v -3.150326 17.922422 -0.517103
v -1.872996 17.978325 1.756524
v -1.428381 18.790134 -3.077446
v -1.383870 19.601755 -1.672944
v -0.287028 19.360825 0.292856
v 0.639481 18.581841 -4.082633
v 1.490804 19.481016 -2.565259
v 1.866874 18.960100 -0.145754
v 1.071890 17.518208 1.612982
v -0.640138 15.620993 -3.567547
v 2.937952 18.171289 -3.655271
v 2.664182 17.120928 -3.839142
v 2.218537 17.985378 -3.955738
vt 0.433880 0.167250
vt 0.464139 0.128790
vt 0.484241 0.218977
vt 0.482625 0.173454
vt 0.506829 0.141402
vt 0.531964 0.235571
vt 0.544551 0.194939
vt 0.559198 0.163839
vt 0.574813 0.256111
vt 0.592037 0.211711
vt 0.605275 0.174689
vt 0.618078 0.265266
vt 0.635958 0.229819
vt 0.641865 0.196094
vt 0.661454 0.298922
vt 0.687149 0.255823
vt 0.698766 0.205392
vt 0.724445 0.304293
vt 0.731099 0.273279
vt 0.746903 0.231658
vt 0.767221 0.323113
vt 0.782930 0.288715
vt 0.791870 0.240931
vt 0.824023 0.292837
vt 0.828183 0.251241
vt 0.515404 0.055143
vt 0.484993 0.091476
vt 0.568945 0.057612
vt 0.534062 0.101799
vt 0.609388 0.095155
vt 0.592281 0.131144
vt 0.422388 0.294854
vt 0.421359 0.247902
vt 0.474079 0.328166
vt 0.481409 0.271612
vt 0.526787 0.322662
vt 0.539502 0.282199
vt 0.431555 0.194967
vt 0.814892 0.316324
vt 0.448453 0.208831
vt 0.431319 0.215257
vt 0.801472 0.325318
vn 0.983592 -0.024891 -0.178681
vn 0.998438 0.028593 -0.047994
vn 0.921356 -0.369101 0.121930
vn 0.914003 -0.391774 -0.105415
vn 0.767050 -0.566472 -0.301236
vn 0.766558 -0.641991 -0.015396
vn 0.684223 -0.693769 -0.224775
vn 0.808787 -0.552007 0.202859
vn 0.027549 -0.998858 0.039046
vn 0.070991 -0.968348 0.239298
vn -0.165844 -0.936071 0.310269
vn -0.208453 -0.974895 0.078279
vn 0.124760 -0.860940 0.493171
vn -0.086086 -0.827816 0.554356
vn -0.409557 -0.851784 0.326691
vn -0.459962 -0.880189 0.117061
vn -0.308370 -0.746471 0.589651
vn -0.998166 -0.002847 -0.060471
vn -0.944770 0.154797 0.288875
vn -0.861205 0.487768 0.142860
vn -0.950037 0.262097 -0.169513
vn -0.787373 0.271342 0.553549
vn -0.696488 0.539589 0.473021
vn -0.663583 0.748101 0.001629
vn -0.744616 0.597059 -0.298441
vn -0.495552 0.810267 0.312883
vn -0.123490 0.872398 -0.472939
vn 0.027135 0.990433 -0.135304
vn 0.131328 0.983505 -0.124381
vn -0.028401 0.858049 -0.512782
vn 0.135106 0.982867 0.125372
vn 0.203542 0.972562 0.112666
vn 0.294659 0.950913 0.094560
vn 0.299973 0.953308 -0.034938
vn 0.297353 0.621885 0.724459
vn 0.194412 0.661984 0.723865
vn 0.096900 0.340741 0.935150
vn 0.250420 0.327959 0.910897
vn 0.359346 0.593219 0.720390
vn 0.369290 0.292210 0.882178
vn 0.043439 0.163389 0.985605
vn 0.171193 0.082707 0.981760
vn 0.338143 -0.029711 0.940626
vn -0.339475 0.060725 -0.938653
vn -0.231418 -0.015587 -0.972730
vn -0.267750 -0.328955 -0.905593
vn -0.423586 -0.247982 -0.871252
vn 0.370038 0.065774 -0.926685
vn 0.370038 0.065774 -0.926685
vn 0.370038 0.065774 -0.926685
vn -0.307245 -0.570939 -0.761334
vn -0.461149 -0.510012 -0.726106
vn -0.057803 -0.382371 -0.922199
vn -0.085214 -0.627208 -0.774176
vn 0.201177 0.748332 -0.632082
vn 0.875245 -0.154047 -0.458492
vn 0.877251 -0.149618 -0.456120
vn -0.015044 -0.137277 -0.990418
vn 0.231351 0.720415 -0.653818
vn -0.027243 -0.119687 -0.992438
s 1
g player7
usemtl initialShadingGroup
f 1/1/1 2/2/2 5/5/3 4/4/4
f 3/3/5 4/4/4 7/7/6 6/6/7
f 4/4/4 5/5/3 8/8/8 7/7/6
s 3
f 6/6/9 7/7/10 10/10/11 9/9/12
f 7/7/10 8/8/13 11/11/14 10/10/11
f 9/9/12 10/10/11 13/13/15 12/12/16
f 10/10/11 11/11/14 14/14/17 13/13/15
s 4
f 12/12/18 13/13/19 16/16/20 15/15/21
f 13/13/19 14/14/22 17/17/23 16/16/20
f 15/15/21 16/16/20 19/19/24 18/18/25
f 16/16/20 17/17/23 20/20/26 19/19/24
s 5
f 18/18/27 19/19/28 22/22/29 21/21/30
f 19/19/28 20/20/31 23/23/32 22/22/29
f 22/22/29 23/23/32 2/25/33 1/24/34
s 6
f 23/27/35 20/26/36 17/28/37 24/29/38
f 2/2/39 23/27/35 24/29/38 5/5/40
f 24/29/38 17/28/37 14/30/41 11/31/42
f 5/5/40 24/29/38 11/31/42 8/8/43
s 7
f 18/32/44 21/33/45 25/35/46 15/34/47
s off
f 27/40/48 28/41/49 26/38/50
s 7
f 15/34/47 25/35/46 9/37/51 12/36/52
f 25/35/46 3/3/53 6/6/54 9/37/51
s 5
f 26/39/55 22/22/29 1/24/34
s 1
f 27/40/56 26/38/57 4/4/4 3/3/5
s 7
f 21/33/45 28/41/58 25/35/46
s 5
f 28/42/59 22/22/29 26/39/55
f 21/21/30 22/22/29 28/42/59
s 1
f 4/4/4 26/38/57 1/1/1
s 7
f 25/35/46 28/41/58 27/40/60 3/3/53
