# This file uses centimeters as units for non-parametric coordinates.

mtllib GolemPart24.mtl
g default
v -5.352275 7.160102 0.658986
v -5.408184 7.114771 -0.118221
v -5.169851 13.629533 0.304170
v -5.300258 13.523799 -1.508692
v -3.348720 13.581217 0.165058
v -3.479126 13.475485 -1.647803
v -4.571523 7.139389 0.599347
v -4.627430 7.094059 -0.177861
v -4.235714 13.624487 0.562300
v -4.413262 13.480529 -1.905937
v -5.027912 7.096222 -0.288526
v -4.951794 7.157938 0.769652
v -5.521354 7.141181 0.281163
v -5.003377 6.973851 0.300015
v -4.458351 7.112979 0.199964
v -3.084742 13.519617 -0.766519
v -4.302297 13.803942 -0.769372
v -5.564237 13.585400 -0.577117
v -6.140809 11.148002 1.451921
v -6.829294 11.070955 -0.086565
v -4.820010 10.887880 -2.406322
v -3.189263 10.879071 -1.955696
v -2.500774 10.956117 -0.417208
v -2.961609 11.063653 1.209070
v -4.510060 11.139192 1.902547
v -6.128392 10.001257 -1.314188
v -6.101410 11.603514 -1.661806
v -6.483669 10.990303 -1.306274
v -5.981349 10.944534 -1.886213
vt 0.776638 0.066578
vt 0.796328 0.068539
vt 0.804644 0.084350
vt 0.785255 0.089679
vt 0.691166 0.036491
vt 0.749189 0.036307
vt 0.753771 0.054699
vt 0.704469 0.062701
vt 0.639822 0.137616
vt 0.629303 0.140722
vt 0.629570 0.132492
vt 0.635919 0.127313
vt 0.843927 0.046305
vt 0.851537 0.077115
vt 0.713106 0.087332
vt 0.760370 0.075941
vt 0.763886 0.096419
vt 0.718825 0.111797
vt 0.805955 0.102165
vt 0.791013 0.114679
vt 0.642586 0.147715
vt 0.634386 0.147229
vt 0.772714 0.115852
vt 0.723503 0.136049
vt 0.647755 0.134891
vt 0.649222 0.143314
vt 0.643925 0.126984
vt 0.777989 0.137550
vt 0.729363 0.161202
vt 0.649516 0.152087
vt 0.734920 0.179275
vt 0.749598 0.179245
vt 0.738861 0.191585
vt 0.712696 0.185647
vt 0.928943 0.052869
vt 0.929874 0.060820
vt 0.639381 0.119508
vt 0.633659 0.113529
vt 0.785823 0.155082
vt 0.857724 0.099802
vt 0.845801 0.106447
vt 0.932961 0.068037
vt 0.879579 0.097766
vt 0.648777 0.159959
vn 0.162639 0.984718 -0.062285
vn 0.155703 0.964207 -0.214622
vn 0.008717 0.978810 -0.204587
vn 0.023018 0.997594 -0.065388
vn 0.897561 -0.202730 -0.391515
vn 0.899765 0.149083 -0.410120
vn 0.972961 0.207943 -0.100531
vn 0.983781 -0.169520 -0.058633
vn -0.024044 -0.997221 0.070508
vn -0.031799 -0.991488 -0.126255
vn 0.143545 -0.980567 -0.133730
vn 0.169014 -0.985124 0.031064
vn -0.040270 0.195438 -0.979889
vn 0.264342 0.142619 -0.953825
vn 0.259351 -0.210084 -0.942657
vn -0.075509 -0.189470 -0.978979
vn 0.410370 0.056175 0.910187
vn 0.390342 0.403245 0.827663
vn 0.099488 0.463767 0.880354
vn 0.073813 0.066756 0.995035
vn 0.023018 0.997594 -0.065388
vn 0.008717 0.978810 -0.204587
vn -0.131689 0.972749 -0.190834
vn -0.114762 0.992503 -0.042039
vn -0.220707 -0.973560 0.058902
vn -0.219693 -0.968906 -0.113824
vn -0.031799 -0.991488 -0.126255
vn -0.024044 -0.997221 0.070508
vn 0.099488 0.463767 0.880354
vn -0.231031 0.481445 0.845479
vn -0.264696 0.094079 0.959732
vn 0.073813 0.066756 0.995035
vn -0.001518 -0.963762 0.266761
vn -0.212224 -0.936378 0.279567
vn -0.220707 -0.973560 0.058902
vn -0.024044 -0.997221 0.070508
vn 0.195066 -0.949972 0.243930
vn -0.001518 -0.963762 0.266761
vn -0.024044 -0.997221 0.070508
vn 0.169014 -0.985124 0.031064
vn 0.936413 0.247245 0.249000
vn 0.949554 -0.143988 0.278594
vn 0.983781 -0.169520 -0.058633
vn 0.972961 0.207943 -0.100531
vn 0.029753 0.996789 0.074336
vn 0.165479 0.984024 0.065674
vn 0.162639 0.984718 -0.062285
vn 0.023018 0.997594 -0.065388
vn -0.098854 0.991780 0.081239
vn 0.029753 0.996789 0.074336
vn 0.023018 0.997594 -0.065388
vn -0.114762 0.992503 -0.042039
vn -0.910936 0.086840 0.403303
vn -0.811962 0.474762 0.339585
vn -0.890727 0.453658 0.028285
vn -0.995649 0.048507 0.079563
vn -0.877963 -0.254254 0.405629
vn -0.910936 0.086840 0.403303
vn -0.995649 0.048507 0.079563
vn -0.946447 -0.305131 0.105511
vn -0.754700 -0.126939 -0.643673
vn -0.754700 -0.126939 -0.643673
vn -0.754700 -0.126939 -0.643673
vn -0.754700 -0.126939 -0.643673
vn 0.259351 -0.210084 -0.942657
vn 0.230629 -0.484096 -0.844075
vn -0.082115 -0.482551 -0.872010
vn -0.075509 -0.189470 -0.978979
vn 0.888988 -0.457141 -0.026886
vn 0.814403 -0.469583 -0.340938
vn 0.897561 -0.202730 -0.391515
vn 0.983781 -0.169520 -0.058633
vn 0.949554 -0.143988 0.278594
vn 0.874007 -0.401160 0.274193
vn 0.888988 -0.457141 -0.026886
vn 0.983781 -0.169520 -0.058633
vn 0.379030 -0.291933 0.878129
vn 0.410370 0.056175 0.910187
vn 0.073813 0.066756 0.995035
vn 0.054350 -0.278862 0.958792
vn -0.264696 0.094079 0.959732
vn -0.259920 -0.237498 0.935968
vn 0.054350 -0.278862 0.958792
vn 0.073813 0.066756 0.995035
vn -0.890727 0.453658 0.028285
vn -0.879361 0.388792 -0.274891
vn -0.879361 0.388792 -0.274891
vn -0.960629 0.040403 -0.274882
vn -0.995649 0.048507 0.079563
vn -0.410350 -0.142235 -0.900767
vn -0.387998 0.232976 -0.891728
vn -0.387998 0.232976 -0.891728
vn -0.040270 0.195438 -0.979889
vn -0.075509 -0.189470 -0.978979
vn -0.385837 -0.433659 -0.814291
vn -0.385837 -0.433659 -0.814291
vn -0.410350 -0.142235 -0.900767
vn -0.075509 -0.189470 -0.978979
vn -0.082115 -0.482551 -0.872010
vn -0.960629 0.040403 -0.274882
vn -0.914773 -0.326696 -0.237613
vn -0.914773 -0.326696 -0.237613
vn -0.946447 -0.305131 0.105511
vn -0.995649 0.048507 0.079563
s off
g player24
usemtl playerSG
f 16/1/1 6/2/2 10/3/3 17/4/4
f 22/5/5 6/6/6 16/7/7 23/8/8
f 14/9/9 11/10/10 8/11/11 15/12/12
f 10/3/13 6/2/14 22/13/15 21/14/16
f 24/15/17 5/16/18 9/17/19 25/18/20
f 17/4/21 10/3/22 4/19/23 18/20/24
f 13/21/25 2/22/26 11/10/27 14/9/28
f 9/17/29 3/23/30 19/24/31 25/18/32
f 12/25/33 1/26/34 13/21/35 14/9/36
f 7/27/37 12/25/38 14/9/39 15/12/40
f 5/16/41 24/15/42 23/8/43 16/7/44
f 9/17/45 5/16/46 16/1/47 17/4/48
f 3/23/49 9/17/50 17/4/51 18/20/52
f 19/24/53 3/23/54 18/28/55 20/29/56
f 1/26/57 19/24/58 20/29/59 13/30/60
f 28/31/61 27/32/62 29/33/63 26/34/64
f 22/13/65 8/35/66 11/36/67 21/14/68
f 15/37/69 8/38/70 22/5/71 23/8/72
f 24/15/73 7/27/74 15/37/75 23/8/76
f 7/27/77 24/15/78 25/18/79 12/25/80
f 19/24/81 1/26/82 12/25/83 25/18/84
f 18/28/85 4/39/86 27/32/87 28/31/88 20/29/89
f 29/40/90 27/41/91 4/19/92 10/3/93 21/14/94
f 2/42/95 26/43/96 29/40/97 21/14/98 11/36/99
f 28/31/100 26/34/101 2/44/102 13/30/103 20/29/104
