# This file uses centimeters as units for non-parametric coordinates.

mtllib GolemPart4.mtl
g default
v -10.809131 21.537489 -2.048726
v -10.783796 21.670652 -2.612769
v -9.749104 25.564432 -1.093803
v -9.690016 25.875044 -2.409452
v -8.439953 25.132877 -1.135775
v -8.380865 25.443487 -2.451424
v -10.247873 21.352470 -2.066720
v -10.222542 21.485638 -2.630763
v -9.105210 25.292509 -0.876977
v -9.024760 25.715412 -2.668251
v -10.498589 21.602217 -2.723721
v -10.533080 21.420908 -1.955769
v -10.897914 21.637512 -2.327495
v -10.551290 21.409178 -2.343575
v -10.133757 21.385612 -2.351994
v -8.173772 25.210175 -1.801186
v -9.006810 25.671963 -1.766327
v -9.956197 25.797743 -1.744040
v -10.878150 24.047964 -1.054420
v -11.239676 24.455263 -2.189559
v -9.613642 24.311533 -3.802978
v -8.489576 23.836830 -3.424459
v -8.128049 23.429531 -2.289319
v -8.592728 23.294586 -1.127691
v -9.754085 23.573263 -0.675900
v -10.838955 23.496794 -3.100265
v -10.376367 25.274946 -3.014276
v -11.031761 24.674480 -2.921277
v -10.344064 24.613693 -3.603637
vt 0.390703 0.065273
vt 0.394159 0.078599
vt 0.384138 0.088943
vt 0.376680 0.073279
vt 0.431024 0.072495
vt 0.420201 0.052109
vt 0.277932 0.108409
vt 0.281155 0.116019
vt 0.275067 0.116109
vt 0.271022 0.111623
vt 0.374804 0.132460
vt 0.375481 0.146505
vt 0.337095 0.156626
vt 0.340307 0.134373
vt 0.305962 0.041219
vt 0.345620 0.038040
vt 0.350311 0.051434
vt 0.316668 0.060867
vt 0.374979 0.117608
vt 0.362553 0.080100
vt 0.284512 0.106226
vt 0.285788 0.112430
vt 0.357462 0.066075
vt 0.325876 0.078385
vt 0.275423 0.101415
vt 0.281477 0.100727
vt 0.270872 0.105578
vt 0.382544 0.055008
vt 0.410176 0.031159
vt 0.368092 0.056545
vt 0.333869 0.095927
vt 0.355444 0.110004
vt 0.342927 0.120199
vt 0.321899 0.114055
vt 0.282580 0.124660
vt 0.284778 0.119241
vt 0.462168 0.020811
vt 0.465674 0.025629
vt 0.460314 0.015349
vt 0.273834 0.090781
vt 0.278106 0.095348
vt 0.340620 0.106100
vt 0.370266 0.091239
vn 0.427839 0.874202 0.229620
vn 0.433202 0.896066 0.096968
vn 0.314050 0.943906 0.102046
vn 0.311578 0.922280 0.228734
vn 0.868017 -0.310164 -0.387744
vn 0.957884 0.098535 -0.269719
vn 0.998445 0.010639 0.054715
vn 0.913951 -0.397797 -0.080324
vn -0.311880 -0.922830 -0.226090
vn -0.298401 -0.867832 -0.397271
vn -0.135155 -0.908047 -0.396464
vn -0.138741 -0.960666 -0.240566
vn 0.241609 0.564842 -0.789037
vn 0.448053 0.440746 -0.777812
vn 0.306837 -0.031921 -0.951227
vn 0.032540 0.060858 -0.997616
vn 0.281257 -0.303688 0.910312
vn 0.357098 -0.025572 0.933717
vn 0.070426 0.089614 0.993484
vn -0.044187 -0.217383 0.975086
vn 0.190863 0.975940 0.105416
vn 0.189828 0.952713 0.237285
vn -0.474115 -0.849951 -0.229779
vn -0.454616 -0.802365 -0.386697
vn -0.235699 0.200181 0.950986
vn -0.350650 -0.086775 0.932478
vn -0.313433 -0.948504 -0.045831
vn -0.480504 -0.876128 -0.038926
vn -0.138181 -0.989085 -0.051158
vn 0.928810 -0.075596 0.362765
vn 0.847504 -0.446401 0.287164
vn 0.303111 0.885962 0.350992
vn 0.416477 0.841228 0.344793
vn 0.186004 0.917342 0.351974
vn -0.913213 0.191637 0.359607
vn -0.720403 0.547417 0.425858
vn -0.725523 0.656682 0.205875
vn -0.966045 0.253189 0.051504
vn -0.957337 -0.128778 0.258692
vn -0.992298 -0.123824 0.003624
vn -0.908490 0.252449 -0.333038
vn -0.908491 0.252449 -0.333038
vn -0.908491 0.252449 -0.333038
vn 0.133990 -0.404196 -0.904805
vn -0.111983 -0.338221 -0.934380
vn 0.711718 -0.695355 -0.099696
vn 0.650474 -0.625083 -0.431456
vn 0.696493 -0.689559 0.198509
vn 0.184490 -0.550800 0.813992
vn -0.129636 -0.471707 0.872174
vn -0.426689 -0.343145 0.836772
vn -0.941952 -0.105783 -0.318648
vn -0.941952 -0.105783 -0.318648
vn -0.898760 0.390799 -0.198762
vn -0.360534 -0.245770 -0.899785
vn -0.360534 -0.245770 -0.899785
vn -0.217349 0.226645 -0.949416
vn -0.007558 0.665137 -0.746684
vn -0.007558 0.665137 -0.746683
vn -0.678804 0.732138 -0.056566
vn -0.678804 0.732138 -0.056566
vn -0.236086 0.108118 -0.965699
vn -0.236086 0.108118 -0.965699
vn -0.236086 0.108118 -0.965699
s 1
g player4
usemtl initialShadingGroup
f 16/1/1 6/2/2 10/3/3 17/4/4
s 2
f 22/5/5 6/2/6 16/1/7 23/6/8
s 3
f 14/7/9 11/8/10 8/9/11 15/10/12
s 4
f 10/11/13 6/12/14 22/13/15 21/14/16
s 5
f 24/15/17 5/16/18 9/17/19 25/18/20
s 1
f 17/4/4 10/3/3 4/43/21 18/20/22
s 3
f 13/21/23 2/22/24 11/8/10 14/7/9
s 5
f 9/17/19 3/23/25 19/24/26 25/18/20
s 3
f 12/25/27 1/26/28 13/21/23 14/7/9
f 7/27/29 12/25/27 14/7/9 15/10/12
s 2
f 5/28/30 24/29/31 23/6/8 16/1/7
s 1
f 9/30/32 5/28/33 16/1/1 17/4/4
f 3/23/34 9/30/32 17/4/4 18/20/22
s 6
f 19/24/35 3/23/36 18/20/37 20/31/38
f 1/26/39 19/24/35 20/31/38 13/21/40
s off
f 27/32/41 29/33/42 26/34/43
s 4
f 22/13/15 8/35/44 11/36/45 21/14/16
s 2
f 15/37/46 8/38/47 22/5/5 23/6/8
f 24/29/31 7/39/48 15/37/46 23/6/8
s 5
f 7/40/49 24/15/17 25/18/20 12/41/50
f 19/24/26 1/26/51 12/41/50 25/18/20
s 6
f 26/34/52 2/22/53 13/21/40 20/31/38 28/42/54
s 4
f 2/22/55 26/34/56 29/33/57 21/14/16 11/36/45
f 27/32/58 4/19/59 10/11/13 21/14/16 29/33/57
s 6
f 18/20/37 4/43/60 27/32/61 28/42/54 20/31/38
s off
f 28/42/62 27/32/63 26/34/64
