# This file uses centimeters as units for non-parametric coordinates.

mtllib GolemPart15.mtl
g default
v 8.247409 9.316054 -0.199277
v 7.800601 9.451587 -0.249414
v 9.142162 10.616983 -1.000883
v 8.044448 10.916694 -1.107615
v 9.165117 11.088889 0.300941
v 8.067403 11.388598 0.194210
v 8.255219 9.511220 0.335186
v 7.808412 9.646753 0.285049
v 9.352058 10.798763 -0.330678
v 7.857507 11.206820 -0.475995
v 7.723743 9.573668 0.008755
v 8.332076 9.389139 0.077016
v 8.022593 9.348543 -0.320953
v 7.986205 9.366931 0.082178
v 8.033228 9.614264 0.406725
v 8.620410 11.324043 0.482888
v 8.669806 11.200874 -0.470952
v 8.589157 10.681539 -1.289561
v 8.761286 9.929036 -0.672791
v 8.307344 9.985613 -0.912235
v 7.859899 10.182920 -0.764278
v 7.705951 10.423448 -0.245004
v 7.877867 10.572195 0.307343
v 8.331810 10.515618 0.546789
v 8.779255 10.318313 0.398830
v 8.933202 10.077783 -0.120443
vt 0.918766 0.093461
vt 0.917573 0.108953
vt 0.908591 0.110370
vt 0.907096 0.094584
vt 0.963182 0.095408
vt 0.947052 0.088657
vt 0.951865 0.076378
vt 0.962833 0.083083
vt 0.956310 0.131724
vt 0.952045 0.123573
vt 0.963400 0.112375
vt 0.969621 0.122499
vt 0.962711 0.042746
vt 0.969548 0.045528
vt 0.966121 0.049049
vt 0.960698 0.048057
vt 0.955986 0.062925
vt 0.966540 0.066685
vt 0.945727 0.117411
vt 0.936161 0.113040
vt 0.942452 0.100561
vt 0.954728 0.104093
vt 0.930592 0.082100
vt 0.939142 0.073424
vt 0.945993 0.058915
vt 0.955817 0.040401
vt 0.955987 0.045263
vt 0.926494 0.109538
vt 0.930844 0.094331
vt 0.964968 0.037095
vt 0.959251 0.036836
vt 0.969399 0.040638
vt 0.923518 0.126170
vt 0.918640 0.125739
vt 0.914050 0.126620
vt 0.937607 0.134174
vt 0.939668 0.138412
vt 0.934132 0.130755
vt 0.928960 0.128126
vn -0.023776 -0.469004 -0.882876
vn -0.069374 -0.539690 -0.839001
vn -0.436583 -0.375311 -0.817642
vn -0.415544 -0.297687 -0.859480
vn 0.276507 0.943956 -0.180251
vn 0.278823 0.901474 -0.331063
vn 0.093234 0.934744 -0.342872
vn 0.091868 0.976982 -0.192526
vn -0.449624 0.135065 0.882947
vn -0.096699 0.022623 0.995057
vn -0.051565 0.097092 0.993939
vn -0.431745 0.222295 0.874175
vn -0.308579 -0.892419 0.329193
vn -0.296635 -0.796100 0.527477
vn -0.534178 -0.691730 0.485967
vn -0.548139 -0.783253 0.293359
vn -0.983060 0.179730 -0.035931
vn -0.994761 0.099779 -0.022232
vn -0.951207 0.186476 0.245830
vn -0.941498 0.249480 0.226588
vn 0.799884 -0.417887 0.430761
vn 0.834017 -0.523604 0.173939
vn 0.872877 -0.459485 0.164192
vn 0.833825 -0.364158 0.414880
vn 0.272065 0.837441 -0.473998
vn 0.092396 0.872321 -0.480125
vn -0.956121 0.019634 -0.292314
vn -0.943356 0.087875 -0.319935
vn -0.301344 -0.946517 0.115317
vn -0.536949 -0.839189 0.086304
vn 0.807372 -0.582410 -0.094602
vn 0.842632 -0.524646 -0.121319
vn -0.048078 -0.936847 0.346420
vn -0.045691 -0.989589 0.136477
vn -0.048250 -0.844714 0.533039
vn 0.302871 -0.031774 0.952502
vn 0.269499 -0.105399 0.957216
vn 0.454790 0.834959 -0.309854
vn 0.450525 0.877995 -0.161716
vn 0.448195 0.771858 -0.450951
vn 0.305662 -0.615869 -0.726138
vn 0.334954 -0.550276 -0.764854
vn 0.252442 -0.715836 -0.651039
vn -0.112684 -0.648394 -0.752919
vn -0.461176 -0.484786 -0.743168
vn -0.965491 -0.092927 -0.243292
vn -0.999787 -0.017001 0.011700
vn -0.958011 0.064313 0.279427
vn -0.140937 -0.106205 0.984306
vn -0.468022 0.015762 0.883576
vn 0.214865 -0.216998 0.952232
vn 0.730902 -0.509158 0.454467
vn 0.765516 -0.611640 0.199704
vn 0.744851 -0.665157 -0.052571
s 1
g player15
usemtl initialShadingGroup
f 18/1/1 20/2/2 21/3/3 4/4/4
s 2
f 16/5/5 17/6/6 10/7/7 6/8/8
s 3
f 23/9/9 24/10/10 16/11/11 6/12/12
s 4
f 14/13/13 15/14/14 8/15/15 11/16/16
s 5
f 10/7/17 22/17/18 23/18/19 6/8/20
s 6
f 25/19/21 26/20/22 9/21/23 5/22/24
s 2
f 17/6/6 18/23/25 4/24/26 10/7/7
s 5
f 21/25/27 22/17/18 10/7/17 4/24/28
s 4
f 13/26/29 14/13/13 11/16/16 2/27/30
s 6
f 9/21/23 26/20/22 19/28/31 3/29/32
s 4
f 12/30/33 14/13/13 13/26/29 1/31/34
f 7/32/35 15/14/14 14/13/13 12/30/33
s 3
f 5/22/36 16/11/11 24/10/10 25/19/37
s 2
f 9/21/38 17/6/6 16/5/5 5/22/39
f 3/29/40 18/23/25 17/6/6 9/21/38
s 1
f 19/28/41 20/2/2 18/1/1 3/29/42
f 1/33/43 13/34/44 20/2/2 19/28/41
f 21/3/3 20/2/2 13/34/44 2/35/45
s 5
f 2/27/46 11/16/47 22/17/18 21/25/27
f 23/18/19 22/17/18 11/16/47 8/15/48
s 3
f 15/36/49 24/10/10 23/9/9 8/37/50
f 25/19/37 24/10/10 15/36/49 7/38/51
s 6
f 7/38/52 12/39/53 26/20/22 25/19/21
f 19/28/31 26/20/22 12/39/53 1/33/54
