# This file uses centimeters as units for non-parametric coordinates.

mtllib GolemPart5.mtl
g default
v 3.106777 19.496984 1.606408
v 4.180775 18.564503 -1.247574
v 3.227904 19.236721 -4.944122
v 3.804212 22.801088 2.765626
v 5.008327 22.842751 -1.101043
v 3.803174 22.698858 -5.587658
v 3.075511 26.875511 -1.192338
v 2.383648 25.720684 -4.312409
v -1.070788 26.198771 3.775068
v -1.142287 27.414261 -1.008792
v -1.003328 26.267458 -4.855165
v -4.092589 24.638735 3.147665
v -5.023426 25.473480 -0.823375
v -4.437743 21.029943 3.714295
v -5.746995 21.114489 -0.925169
v -4.523438 21.202381 -4.930299
v -2.820371 17.749996 2.291065
v -3.667104 16.657381 -0.826060
v -2.775786 17.687735 -4.463707
v 0.441154 17.621111 2.704467
v 0.422872 16.544811 -1.021273
v 0.285386 17.622747 -5.662819
v 0.043051 19.192158 -5.595702
v -2.966973 21.450981 -5.130099
v 1.606328 20.481684 -5.654931
v 2.232014 22.459888 -5.541564
v -2.416174 23.552126 -5.012688
v -0.776628 24.710754 -5.075954
v 1.132547 24.177258 -5.292675
v -1.650433 19.473457 3.267633
v 0.177329 19.163321 2.972039
v -2.877265 21.315294 3.612475
v 1.696234 20.502293 2.880835
v 2.266747 22.495535 3.020002
v -0.784703 24.639364 3.660122
v -2.384684 23.428682 3.759911
v 1.186248 23.860546 -0.475532
v 1.318049 23.865185 -1.620527
v -0.579812 23.929955 -1.581281
v -0.703664 23.916479 -0.433878
v -2.105845 23.343239 -1.547276
v -2.239373 23.321712 -0.399191
v -2.293849 21.703815 -1.543410
v -2.419344 21.680511 -0.388063
v -1.671749 20.188066 -1.552427
v -0.006761 19.776295 -1.580489
v -0.122209 19.768454 -0.444753
v 1.476713 20.671040 -1.609862
v 1.352216 20.673399 -0.491403
v 1.911031 22.346226 -1.623453
v 1.781432 22.348101 -0.495540
v 1.370329 24.611591 3.125586
v 1.412806 23.752111 3.271729
v 0.649944 24.288071 3.431760
v 1.142682 24.093365 2.397846
v -1.946880 20.545830 -0.393514
v -1.759981 20.172720 -0.684605
v -1.372596 20.067818 -0.407686
v -1.754652 19.994066 0.520410
v -1.759771 19.955101 -0.217018
v 2.341507 26.168970 1.528486
v 2.523682 25.150364 2.517977
v 1.304932 25.999784 2.770337
v 1.915211 25.602989 2.607966
v -2.032646 19.095438 -5.153167
v -1.327937 19.471544 -5.436165
v -2.080442 20.036249 -5.319764
v -1.756637 19.720520 -4.425347
v -4.157281 24.842655 -3.070322
v -3.152256 25.041149 -4.078269
v -4.032284 23.774881 -4.097053
v -3.505468 24.362318 -4.117650
vt 0.496662 0.776446
vt 0.474951 0.830076
vt 0.412758 0.795793
vt 0.442223 0.728191
vt 0.441343 0.892668
vt 0.373356 0.870172
vt 0.320143 0.821316
vt 0.349692 0.764286
vt 0.265851 0.788272
vt 0.293451 0.730833
vt 0.324522 0.660160
vt 0.233743 0.698145
vt 0.268584 0.627246
vt 0.169993 0.667128
vt 0.206466 0.587479
vt 0.226197 0.765734
vt 0.213444 0.768556
vt 0.213909 0.740136
vt 0.099012 0.629454
vt 0.128037 0.575324
vt 0.133747 0.733174
vt 0.067131 0.691446
vt 0.035549 0.600500
vt 0.078256 0.538370
vt 0.006264 0.688330
vt 0.560554 0.785373
vt 0.543884 0.858011
vt 0.491070 0.933017
vt 0.172441 0.850079
vt 0.181901 0.858965
vt 0.163348 0.865822
vt 0.246666 0.932706
vt 0.182140 0.918440
vt 0.197971 0.892942
vt 0.237386 0.894010
vt 0.297252 0.888573
vt 0.271361 0.874114
vt 0.276216 0.836617
vt 0.252652 0.808141
vt 0.345666 0.504180
vt 0.403053 0.526581
vt 0.388499 0.551902
vt 0.352936 0.545908
vt 0.291606 0.555881
vt 0.317268 0.570652
vt 0.446446 0.574447
vt 0.408222 0.584533
vt 0.430742 0.638698
vt 0.406111 0.622417
vt 0.310535 0.610568
vt 0.334825 0.639903
vt 0.873809 0.853945
vt 0.872918 0.874652
vt 0.842668 0.875678
vt 0.842416 0.854834
vt 0.908919 0.853250
vt 0.907324 0.872101
vt 0.649088 0.874924
vt 0.650691 0.856729
vt 0.680616 0.855020
vt 0.679414 0.875911
vt 0.711060 0.854392
vt 0.711407 0.876120
vt 0.744195 0.850268
vt 0.750871 0.854117
vt 0.742554 0.859318
vt 0.776988 0.875950
vt 0.775598 0.854554
vt 0.809036 0.854969
vt 0.810133 0.875832
vt 0.920011 0.934141
vt 0.884556 0.939862
vt 0.849456 0.946622
vt 0.813812 0.949997
vt 0.779261 0.951822
vt 0.710127 0.943084
vt 0.673099 0.938210
vt 0.636861 0.936631
vt 0.638115 0.784503
vt 0.673528 0.780321
vt 0.711153 0.780470
vt 0.778424 0.789910
vt 0.811759 0.793259
vt 0.846866 0.789549
vt 0.370119 0.638972
vt 0.374375 0.654045
vt 0.360193 0.648216
vt 0.879503 0.802315
vt 0.873484 0.786256
vt 0.379293 0.694494
vt 0.369177 0.716182
vt 0.366445 0.684350
vt 0.384211 0.637672
vt 0.743971 0.836823
vt 0.743569 0.875808
vt 0.733821 0.854204
vt 0.748114 0.784907
vt 0.393650 0.704056
vt 0.746562 0.930547
vt 0.738391 0.946904
vt 0.755321 0.948910
vt 0.178382 0.873264
vt 0.132350 0.874547
vt 0.158819 0.800556
vt 0.182396 0.820123
vt 0.216861 0.800137
vt 0.199301 0.768632
vt 0.186417 0.747633
vt 0.889592 0.783738
vt 0.916590 0.780367
vt 0.379728 0.678522
vt 0.392917 0.673529
vn 0.908893 -0.241365 0.340082
vn 0.975276 -0.220844 -0.008018
vn 0.992504 0.122053 0.006299
vn 0.929649 0.147784 0.337509
vn 0.946567 -0.188359 -0.261785
vn 0.951652 0.104645 -0.288805
vn 0.845416 0.450021 -0.287670
vn 0.884021 0.466946 -0.021651
vn 0.157645 0.985580 -0.061488
vn 0.148675 0.935391 -0.320842
vn -0.157624 0.926709 -0.341123
vn -0.182160 0.983188 -0.012626
vn -0.216076 0.939231 0.266750
vn -0.485086 0.874263 0.018865
vn -0.450486 0.856440 0.252138
vn -0.953958 0.143326 0.263481
vn -0.983398 0.181329 0.006987
vn -0.987889 -0.154979 -0.007563
vn -0.944978 -0.148890 0.291287
vn -0.688565 0.393609 -0.609057
vn -0.688565 0.393609 -0.609057
vn -0.688565 0.393609 -0.609057
vn -0.886854 -0.462011 -0.005980
vn -0.842228 -0.452602 0.292923
vn -0.927515 -0.175892 -0.329816
vn -0.851884 -0.430217 -0.298676
vn -0.040333 -0.951006 0.306529
vn -0.059790 -0.998073 0.016604
vn 0.240991 -0.970473 0.010258
vn 0.256882 -0.908162 0.330537
vn -0.073162 -0.964863 -0.252363
vn 0.243582 -0.935612 -0.255535
vn 0.524046 -0.851689 -0.000743
vn 0.538522 -0.777875 0.323891
vn 0.476362 -0.845903 -0.239847
vn 0.938680 -0.013321 -0.344532
vn 0.938680 -0.013321 -0.344532
vn 0.938680 -0.013321 -0.344532
vn 0.181969 -0.110305 -0.977098
vn -0.050990 -0.122226 -0.991192
vn -0.022644 -0.118986 -0.992638
vn 0.180849 -0.111497 -0.977170
vn 0.129048 0.116066 -0.984823
vn 0.129918 0.110364 -0.985363
vn -0.088143 0.291901 -0.952378
vn 0.106416 0.335332 -0.936071
vn 0.106163 0.335517 -0.936033
vn -0.093294 0.290975 -0.952171
vn -0.047555 -0.345563 0.937190
vn 0.182494 -0.304843 0.934755
vn 0.210048 -0.299067 0.930827
vn -0.047366 -0.345687 0.937154
vn -0.087150 -0.139034 0.986445
vn -0.087077 -0.139411 0.986399
vn 0.407202 -0.272998 0.871584
vn 0.405733 -0.274787 0.871707
vn 0.339658 -0.110457 0.934040
vn 0.341023 -0.116075 0.932861
vn 0.050856 0.092558 0.994408
vn -0.140461 0.079272 0.986908
vn -0.140029 0.079700 0.986935
vn 0.046029 0.091995 0.994695
vn -0.930218 -0.365226 -0.036127
vn -0.895899 -0.440823 -0.055131
vn -0.895915 -0.440788 -0.055155
vn -0.906052 -0.423165 0.000828
vn -0.134010 -0.984660 -0.111737
vn -0.029806 -0.998863 0.037211
vn -0.077435 -0.994389 0.072074
vn -0.131194 -0.985351 -0.108961
vn 0.451453 -0.884209 -0.119854
vn 0.471582 -0.877729 0.084866
vn 0.475415 -0.875455 0.086946
vn 0.448312 -0.886518 -0.114468
vn 0.981432 -0.172621 -0.083623
vn 0.983439 -0.164844 0.075329
vn 0.983305 -0.165952 0.074638
vn 0.981556 -0.172346 -0.082732
vn -0.243943 0.966793 0.076183
vn -0.181657 0.962752 0.200272
vn -0.056046 0.905184 0.421308
vn -0.569307 0.817952 -0.082726
vn -0.576529 0.810408 0.104178
vn -0.574815 0.812318 0.098633
vn -0.570498 0.817048 -0.083453
vn -0.959591 0.273138 -0.067680
vn -0.964347 0.256182 0.066375
vn -0.964371 0.256173 0.066063
vn -0.959539 0.273445 -0.067173
vn -0.162903 -0.976625 -0.140236
vn -0.162903 -0.976625 -0.140236
vn -0.886701 -0.460463 -0.041655
vn -0.886701 -0.460462 -0.041654
vn -0.958420 0.279632 -0.056890
vn -0.958420 0.279632 -0.056890
vn -0.582000 0.808137 -0.090507
vn -0.582000 0.808137 -0.090507
vn 0.972901 -0.188075 -0.134504
vn 0.972901 -0.188075 -0.134504
vn 0.473062 -0.866796 -0.157723
vn 0.473062 -0.866796 -0.157723
vn 0.499688 -0.860389 0.100217
vn 0.499688 -0.860389 0.100217
vn 0.981701 -0.178280 0.066933
vn 0.981701 -0.178280 0.066933
vn -0.588992 0.794713 0.146698
vn -0.588992 0.794713 0.146698
vn -0.959327 0.257188 0.116393
vn -0.959326 0.257188 0.116393
vn 0.509680 -0.768133 0.387554
vn 0.509680 -0.768133 0.387554
vn 0.509680 -0.768133 0.387554
vn -0.846685 -0.521044 0.107882
vn -0.833333 -0.539680 0.119589
vn -0.833333 -0.539680 0.119589
vn 0.553628 0.627414 0.547584
vn 0.553628 0.627414 0.547584
vn 0.553628 0.627414 0.547584
vn -0.154158 -0.977433 0.144431
vn -0.955039 0.003210 0.296464
vn -0.955039 0.003210 0.296464
vn -0.955039 0.003210 0.296464
vn 0.227308 0.965781 0.124895
vn 0.227823 0.966350 0.119429
vn 0.218768 0.962849 0.158310
vn 0.206213 0.964227 0.166564
vn 0.214617 0.968597 -0.125541
vn 0.237140 0.970815 0.035816
vn 0.214488 0.968675 -0.125153
vn 0.884681 0.451115 -0.117624
vn 0.902192 0.413477 0.122827
vn 0.902830 0.412265 0.122212
vn 0.919366 0.379418 0.103965
vn 0.886841 0.447173 0.116398
vn 0.865101 0.492355 0.095849
vn 0.836261 0.543676 0.071305
vn 0.947532 0.315495 0.051447
vn 0.951781 0.306345 0.016318
vn 0.926731 0.340800 0.158196
vn 0.954981 0.295832 -0.022260
vn -0.301021 0.952397 -0.048231
vn 0.845132 0.442495 0.299918
vn 0.809371 0.477248 0.342277
vn 0.153641 0.953800 0.258187
vn 0.323056 0.135113 0.936685
vn 0.325283 0.155236 0.932788
vn 0.275014 0.162162 0.947666
vn 0.293476 0.173783 0.940038
vn 0.352390 0.235665 0.905695
vn 0.352728 0.235430 0.905625
vn 0.549991 0.630459 0.547750
vn 0.549991 0.630459 0.547750
vn 0.549991 0.630459 0.547750
vn 0.835170 0.538405 -0.112300
vn 0.872944 0.463385 -0.152457
vn 0.881522 0.454418 -0.128156
vn 0.210774 0.966176 -0.148589
vn 0.210185 0.966262 -0.148860
vn -0.298369 -0.150171 -0.942563
vn -0.270542 -0.166433 -0.948213
vn -0.337731 -0.264176 -0.903410
vn -0.284530 0.022252 -0.958409
vn -0.284522 0.022210 -0.958412
vn -0.242180 -0.181092 -0.953181
vn -0.552301 0.724349 -0.412652
vn -0.552301 0.724349 -0.412652
vn -0.552301 0.724349 -0.412652
vn -0.446603 0.321826 -0.834850
vn -0.360786 0.240008 -0.901238
vn -0.339922 0.249666 -0.906708
vn -0.333075 0.266996 -0.904308
vn -0.918746 0.212467 -0.332810
vn -0.918746 0.212467 -0.332810
vn -0.486261 0.811075 -0.325127
vn -0.486262 0.811075 -0.325127
vn -0.600143 0.516806 -0.610525
vn -0.600143 0.516806 -0.610525
vn -0.600143 0.516806 -0.610525
vn 0.178733 0.970271 -0.163186
vn 0.874216 0.460489 -0.153940
vn 0.192237 0.965497 0.175671
vn -0.174298 -0.972494 0.154516
vn -0.174298 -0.972494 0.154516
vn 0.203826 0.932800 0.297219
s 1
g player5
usemtl initialShadingGroup
f 1/1/1 2/2/2 5/3/3 4/4/4
f 2/2/2 3/5/5 6/6/6 5/3/3
f 5/3/3 6/6/6 8/7/7 7/8/8
s 2
f 7/8/9 8/7/10 11/9/11 10/10/12
f 9/11/13 10/10/12 13/12/14 12/13/15
s 3
f 12/13/16 13/12/17 15/14/18 14/15/19
s off
f 70/16/20 72/17/21 69/18/22
s 3
f 14/15/19 15/14/18 18/19/23 17/20/24
f 15/14/18 16/21/25 19/22/26 18/19/23
s 4
f 17/20/27 18/19/28 21/23/29 20/24/30
f 18/19/28 19/22/31 22/25/32 21/23/29
f 20/26/30 21/27/29 2/2/33 1/1/34
f 21/27/29 22/28/32 3/5/35 2/2/33
s off
f 67/29/36 68/30/37 65/31/38
s 5
f 3/32/39 22/33/40 23/34/41 25/35/42
f 6/36/43 3/32/39 25/35/42 26/37/44
f 11/9/45 8/7/46 29/38/47 28/39/48
f 8/7/46 6/36/43 26/37/44 29/38/47
s 6
f 17/40/49 20/41/50 31/42/51 30/43/52
f 14/44/53 17/40/49 30/43/52 32/45/54
f 20/41/50 1/46/55 33/47/56 31/42/51
f 1/46/55 4/48/57 34/49/58 33/47/56
f 9/11/59 12/13/60 36/50/61 35/51/62
f 12/13/60 14/44/53 32/45/54 36/50/61
s 7
f 37/52/63 38/53/64 50/54/65 51/55/66
s 8
f 38/53/67 37/52/68 40/56/69 39/57/70
s 9
f 39/58/71 40/59/72 42/60/73 41/61/74
s 10
f 41/61/75 42/60/76 44/62/77 43/63/78
s 11
f 60/64/79 58/65/80 57/66/81
s 12
f 46/67/82 47/68/83 49/69/84 48/70/85
s 13
f 48/70/86 49/69/87 51/55/88 50/54/89
s 8
f 28/71/90 29/72/91 38/53/67 39/57/70
s 7
f 29/72/92 26/73/93 50/54/65 38/53/64
s 13
f 26/73/94 25/74/95 48/70/86 50/54/89
s 12
f 25/74/96 23/75/97 46/67/82 48/70/85
s 10
f 24/76/98 27/77/99 41/61/75 43/63/78
s 9
f 27/77/100 28/78/101 39/58/71 41/61/74
f 42/60/73 40/59/72 35/79/102 36/80/103
s 10
f 44/62/77 42/60/76 36/80/104 32/81/105
s 12
f 49/69/84 47/68/83 31/82/106 33/83/107
s 13
f 51/55/88 49/69/87 33/83/108 34/84/109
s off
f 55/85/110 52/86/111 54/87/112
s 7
f 55/88/113 51/55/66 34/84/114 53/89/115
s off
f 64/90/116 61/91/117 63/92/118
s 8
f 40/56/69 37/52/68 55/88/119
s off
f 55/85/120 53/93/121 52/86/122
s 14
f 47/68/123 58/65/124 59/94/125 31/82/126
f 45/95/127 57/66/128 46/67/129
s 15
f 43/63/130 44/62/131 56/96/132 57/66/133
f 59/94/134 32/81/135 30/97/136
s 16
f 56/96/137 60/64/138 57/66/139
f 59/94/140 60/64/138 56/96/137
s 11
f 59/94/141 58/65/80 60/64/79
s 1
f 62/98/142 7/8/8 61/91/143
s 2
f 63/92/144 7/8/9 10/10/12 9/11/13
s 6
f 54/87/145 63/92/146 9/11/59 35/51/62
f 53/93/147 62/112/148 64/111/149 52/86/150
s off
f 64/90/151 62/98/152 61/91/153
s 15
f 68/99/154 67/100/155 45/95/156
s 14
f 23/75/157 66/101/158 45/95/127 46/67/129
s 5
f 66/102/159 19/103/160 65/31/161
f 19/103/160 16/104/162 24/105/163 67/29/164
s off
f 65/31/165 68/30/166 66/102/167
s 5
f 72/17/168 70/16/169 27/106/170
f 27/106/170 71/107/171 72/17/168
s 3
f 13/12/17 69/18/172 71/108/173 16/21/25 15/14/18
s 2
f 10/10/12 11/9/11 70/16/174 69/18/175 13/12/14
s off
f 69/18/176 72/17/177 71/107/178
s 5
f 27/106/170 70/16/169 11/9/45 28/39/48
f 16/104/162 71/107/171 27/106/170 24/105/163
s 14
f 45/95/127 66/101/158 68/99/179
s 5
f 22/33/40 19/103/160 66/102/159 23/34/41
s 15
f 45/95/156 67/100/155 24/76/180 43/63/130
s 5
f 19/103/160 67/29/164 65/31/161
s 15
f 59/94/134 56/96/132 44/62/131 32/81/135
s 14
f 31/82/126 59/94/125 30/97/181
s 15
f 43/63/130 57/66/133 45/95/156
s 14
f 46/67/129 57/66/128 58/65/124 47/68/123
s 7
f 37/52/63 51/55/66 55/88/113
s 8
f 40/56/69 55/88/119 54/109/182 35/110/183
s 6
f 64/111/149 63/92/146 54/87/145 52/86/150
f 4/48/57 62/112/148 53/93/147 34/49/58
s 2
f 63/92/144 61/91/184 7/8/9
s 1
f 4/4/4 5/3/3 7/8/8 62/98/142
