# This file uses centimeters as units for non-parametric coordinates.

mtllib GolemPart16.mtl
g default
v 11.821329 7.194431 0.141408
v 11.426489 7.199337 0.099514
v 12.222160 8.947231 -0.725778
v 11.260365 8.922335 -0.810797
v 12.123710 9.280624 0.307706
v 11.161918 9.255727 0.222687
v 11.779252 7.332279 0.565589
v 11.384413 7.337186 0.523695
v 12.346785 9.118430 -0.193668
v 11.037291 9.084530 -0.309422
v 11.334082 7.269149 0.304031
v 11.871660 7.262468 0.361071
v 11.631515 7.171968 0.043788
v 11.597535 7.127496 0.381234
v 11.574228 7.359651 0.621315
v 11.625018 9.328438 0.452005
v 11.695495 9.338471 -0.335200
v 11.759057 8.874519 -0.955095
v 12.084802 8.062326 -0.351100
v 11.703772 8.006715 -0.541862
v 11.293097 8.050520 -0.425099
v 11.108995 8.185884 -0.013143
v 11.211105 8.325517 0.425566
v 11.592137 8.381129 0.616328
v 12.002810 8.337324 0.499565
v 12.186912 8.201959 0.087608
vt 0.157269 0.453332
vt 0.167006 0.468261
vt 0.161513 0.473631
vt 0.149869 0.459698
vt 0.185206 0.430843
vt 0.171890 0.435432
vt 0.168245 0.424754
vt 0.178356 0.423078
vt 0.204228 0.458545
vt 0.196573 0.457807
vt 0.194750 0.440090
vt 0.204517 0.440398
vt 0.155389 0.387968
vt 0.160955 0.386265
vt 0.160742 0.390484
vt 0.156939 0.392647
vt 0.162829 0.409378
vt 0.171047 0.406213
vt 0.189085 0.458405
vt 0.181061 0.460944
vt 0.175672 0.445736
vt 0.184871 0.441129
vt 0.158874 0.440120
vt 0.159322 0.429769
vt 0.154445 0.412041
vt 0.149849 0.390148
vt 0.152621 0.393317
vt 0.173218 0.464020
vt 0.165617 0.447933
vt 0.153614 0.383056
vt 0.150015 0.385937
vt 0.158219 0.383066
vt 0.183037 0.480086
vt 0.179673 0.482332
vt 0.176964 0.485171
vt 0.195585 0.476702
vt 0.199481 0.477227
vt 0.191564 0.477062
vt 0.187198 0.478274
vn 0.101966 -0.432944 -0.895635
vn 0.087520 -0.491109 -0.866691
vn -0.288742 -0.453311 -0.843290
vn -0.290009 -0.396304 -0.871113
vn -0.018379 0.995984 -0.087623
vn 0.003016 0.951361 -0.308063
vn -0.247904 0.915357 -0.317277
vn -0.260221 0.959652 -0.106549
vn -0.457853 0.104021 0.882922
vn -0.094910 0.108285 0.989579
vn -0.080540 0.173138 0.981599
vn -0.459487 0.166634 0.872413
vn -0.043545 -0.950675 0.307118
vn -0.072941 -0.806838 0.586253
vn -0.398721 -0.756971 0.517703
vn -0.384509 -0.889419 0.247158
vn -0.993017 -0.099855 -0.062814
vn -0.986510 -0.157617 -0.044221
vn -0.968536 -0.054785 0.242767
vn -0.973642 -0.002110 0.228073
vn 0.899286 -0.083166 0.429381
vn 0.970856 -0.184340 0.153161
vn 0.982198 -0.129836 0.135756
vn 0.909032 -0.031526 0.415531
vn 0.022303 0.858068 -0.513051
vn -0.223278 0.825640 -0.518137
vn -0.913342 -0.239728 -0.329145
vn -0.918365 -0.188255 -0.348088
vn -0.014023 -0.999899 -0.002387
vn -0.337761 -0.940589 -0.034788
vn 0.954123 -0.265923 -0.137601
vn 0.963883 -0.215852 -0.156005
vn 0.304589 -0.897431 0.319129
vn 0.316579 -0.948066 0.030812
vn 0.264766 -0.764295 0.588008
vn 0.286986 0.154757 0.945351
vn 0.281202 0.095852 0.954850
vn 0.253450 0.927986 -0.273141
vn 0.226250 0.972014 -0.063238
vn 0.269074 0.837321 -0.475913
vn 0.449842 -0.459679 -0.765727
vn 0.455869 -0.406132 -0.791985
vn 0.436981 -0.541132 -0.718488
vn 0.084302 -0.577145 -0.812279
vn -0.284729 -0.534411 -0.795823
vn -0.898989 -0.323082 -0.295699
vn -0.969801 -0.243360 -0.016212
vn -0.953670 -0.141563 0.265468
vn -0.096633 0.006630 0.995298
vn -0.452062 0.010807 0.891921
vn 0.269936 0.001576 0.962877
vn 0.878249 -0.164993 0.448838
vn 0.947227 -0.266402 0.178298
vn 0.932741 -0.344179 -0.107404
s 1
g player16
usemtl initialShadingGroup
f 18/1/1 20/2/2 21/3/3 4/4/4
s 2
f 16/5/5 17/6/6 10/7/7 6/8/8
s 3
f 23/9/9 24/10/10 16/11/11 6/12/12
s 4
f 14/13/13 15/14/14 8/15/15 11/16/16
s 5
f 10/7/17 22/17/18 23/18/19 6/8/20
s 6
f 25/19/21 26/20/22 9/21/23 5/22/24
s 2
f 17/6/6 18/23/25 4/24/26 10/7/7
s 5
f 21/25/27 22/17/18 10/7/17 4/24/28
s 4
f 13/26/29 14/13/13 11/16/16 2/27/30
s 6
f 9/21/23 26/20/22 19/28/31 3/29/32
s 4
f 12/30/33 14/13/13 13/26/29 1/31/34
f 7/32/35 15/14/14 14/13/13 12/30/33
s 3
f 5/22/36 16/11/11 24/10/10 25/19/37
s 2
f 9/21/38 17/6/6 16/5/5 5/22/39
f 3/29/40 18/23/25 17/6/6 9/21/38
s 1
f 19/28/41 20/2/2 18/1/1 3/29/42
f 1/33/43 13/34/44 20/2/2 19/28/41
f 21/3/3 20/2/2 13/34/44 2/35/45
s 5
f 2/27/46 11/16/47 22/17/18 21/25/27
f 23/18/19 22/17/18 11/16/47 8/15/48
s 3
f 15/36/49 24/10/10 23/9/9 8/37/50
f 25/19/37 24/10/10 15/36/49 7/38/51
s 6
f 7/38/52 12/39/53 26/20/22 25/19/21
f 19/28/31 26/20/22 12/39/53 1/33/54
