# This file uses centimeters as units for non-parametric coordinates.

mtllib GolemPart18.mtl
g default
v -5.951802 0.745298 -2.658169
v -5.951633 0.000000 -2.700482
v -6.901685 1.689912 -0.494893
v -6.884461 0.000000 -0.652460
v -4.803604 1.699132 -0.171924
v -4.786380 0.000000 -0.329491
v -5.089928 0.746119 -2.524408
v -5.089759 0.000000 -2.566721
v -5.855758 1.831420 -0.304926
v -5.832308 0.000000 -0.519457
v -5.520667 0.000000 -2.641249
v -5.520895 0.880737 -2.583640
v -6.107507 0.371641 -2.703504
v -5.485267 0.344492 -2.815726
v -4.934054 0.372759 -2.521386
v -4.415751 0.788875 -0.192329
v -5.904228 0.819350 -0.064638
v -7.272314 0.776322 -0.632055
v -6.535626 1.073534 -1.818102
v -6.842751 0.575689 -1.924706
v -6.525414 0.000000 -1.934955
v -5.659883 0.000000 -1.822814
v -4.798047 0.000000 -1.668427
v -4.490921 0.583705 -1.561825
v -4.808260 1.079422 -1.551575
v -5.673789 1.347671 -1.663717
vt 0.888269 0.182318
vt 0.877206 0.160780
vt 0.883687 0.151947
vt 0.899766 0.169842
vt 0.826413 0.210224
vt 0.853224 0.209981
vt 0.853385 0.226385
vt 0.833497 0.225192
vt 0.822315 0.151709
vt 0.828942 0.160831
vt 0.817654 0.182650
vt 0.806265 0.169914
vt 0.852929 0.139515
vt 0.841790 0.140470
vt 0.844814 0.133388
vt 0.853077 0.132821
vt 0.794970 0.153493
vt 0.814612 0.138479
vt 0.837492 0.165910
vt 0.853068 0.167755
vt 0.852812 0.192504
vt 0.833402 0.193120
vt 0.879802 0.209847
vt 0.873195 0.224733
vt 0.891419 0.138936
vt 0.911431 0.153639
vt 0.864200 0.140420
vt 0.861282 0.133382
vt 0.868652 0.165836
vt 0.872297 0.192859
vt 0.852919 0.149322
vt 0.861316 0.147484
vt 0.844570 0.147546
vt 0.868365 0.143824
vt 0.873694 0.138203
vt 0.877593 0.131312
vt 0.828532 0.131259
vt 0.832431 0.138190
vt 0.837665 0.143885
vn -0.927486 0.097406 -0.360944
vn -0.896413 0.009767 -0.443112
vn -0.827491 -0.420124 -0.372498
vn -0.864970 -0.445938 -0.230144
vn -0.010522 -0.105835 0.994328
vn -0.151898 -0.095166 0.983804
vn -0.141452 -0.344150 0.928199
vn -0.027189 -0.340858 0.939722
vn 0.899000 -0.421811 -0.117792
vn 0.984979 0.001724 -0.172665
vn 0.990479 0.091507 -0.102850
vn 0.896294 -0.443434 0.004855
vn 0.154227 0.053778 -0.986571
vn 0.363231 0.072843 -0.928847
vn 0.346412 -0.254849 -0.902802
vn 0.145713 -0.257216 -0.955305
vn -0.000000 -1.000000 0.000000
vn 0.000000 -1.000000 0.000000
vn -0.000000 -1.000000 0.000000
vn -0.000000 -1.000000 -0.000000
vn 0.258913 0.895811 -0.361230
vn 0.056254 0.915213 -0.399026
vn 0.057385 0.923057 -0.380359
vn 0.234196 0.906897 -0.350272
vn -0.289323 -0.107053 0.951227
vn -0.255516 -0.342846 0.903974
vn 0.000000 -1.000000 0.000000
vn 0.000000 -1.000000 0.000000
vn -0.063096 0.073453 -0.995301
vn -0.055066 -0.248930 -0.966955
vn -0.144704 0.896223 -0.419340
vn -0.126024 0.908508 -0.398411
vn 0.145891 0.305054 -0.941094
vn -0.064805 0.298839 -0.952101
vn 0.351726 0.297561 -0.887551
vn 0.881067 0.445386 -0.159221
vn 0.864826 0.446333 -0.229920
vn -0.149984 0.117263 0.981710
vn 0.005262 0.114558 0.993403
vn -0.305435 0.117082 0.944987
vn -0.761891 0.454413 -0.461552
vn -0.803869 0.452652 -0.385876
vn -0.618804 0.441861 -0.649492
vn -0.745634 0.006789 -0.666321
vn -0.734069 -0.362300 -0.574353
vn 0.000000 -1.000000 0.000000
vn 0.000000 -1.000000 0.000000
vn -0.000000 -1.000000 0.000000
vn 0.920423 -0.012418 -0.390727
vn 0.875654 -0.375480 -0.303718
vn 0.795092 0.436429 -0.421140
vn 0.319881 0.864667 -0.387335
vn 0.067573 0.893849 -0.443247
vn -0.190136 0.862373 -0.469213
s 1
g player18
usemtl initialShadingGroup
f 18/1/1 20/2/2 21/3/3 4/4/4
s 2
f 16/5/5 17/6/6 10/7/7 6/8/8
s 3
f 23/9/9 24/10/10 16/11/11 6/12/12
s 4
f 14/13/13 15/14/14 8/15/15 11/16/16
s 5
f 10/17/17 22/18/18 23/9/19 6/12/20
s 6
f 25/19/21 26/20/22 9/21/23 5/22/24
s 2
f 17/6/6 18/23/25 4/24/26 10/7/7
s 5
f 21/3/27 22/25/18 10/26/17 4/4/28
s 4
f 13/27/29 14/13/13 11/16/16 2/28/30
s 6
f 9/21/23 26/20/22 19/29/31 3/30/32
s 4
f 12/31/33 14/13/13 13/27/29 1/32/34
f 7/33/35 15/14/14 14/13/13 12/31/33
s 3
f 5/22/36 16/11/11 24/10/10 25/19/37
s 2
f 9/21/38 17/6/6 16/5/5 5/22/39
f 3/30/40 18/23/25 17/6/6 9/21/38
s 1
f 19/29/41 20/2/2 18/1/1 3/30/42
f 1/32/43 13/34/44 20/2/2 19/29/41
f 21/3/3 20/2/2 13/34/44 2/35/45
s 5
f 2/35/46 11/36/47 22/25/18 21/3/27
f 23/9/19 22/18/18 11/37/47 8/38/48
s 3
f 15/39/49 24/10/10 23/9/9 8/38/50
f 25/19/37 24/10/10 15/39/49 7/33/51
s 6
f 7/33/52 12/31/53 26/20/22 25/19/21
f 19/29/31 26/20/22 12/31/53 1/32/54
