# This file uses centimeters as units for non-parametric coordinates.

mtllib GolemPart1.mtl
g default
v 3.469600 28.214237 4.872049
v -0.423770 28.144253 5.664388
v 4.085738 28.736958 5.678829
v -0.281408 29.132223 6.796899
v 3.664735 32.399647 5.627185
v 0.214658 33.516216 6.608704
v 0.621728 35.187576 2.077342
v 3.286000 33.051636 -2.372039
v 0.099138 34.621586 -2.685675
v 4.245920 29.752234 -3.002949
v -0.704403 30.420523 -3.878727
v 3.380196 29.069710 -2.321090
v -0.531611 29.176132 -3.012085
v 4.169936 28.129107 1.205225
v -0.544624 28.089714 1.259137
v 5.278508 29.124462 1.309822
v 1.304316 31.513557 6.420007
v 1.038246 30.138058 6.599663
v 2.704439 29.785707 6.277879
v 2.703916 31.369671 6.098506
v 1.522915 28.179251 5.268219
v 1.812657 28.109413 1.232181
v 1.424293 29.122927 -2.666587
v 1.915876 30.077389 -3.443711
v 1.984742 33.959484 -2.384932
v 2.536115 34.210655 1.968681
v 2.090387 32.948597 6.114962
v 2.015137 31.619902 6.227376
v 1.494779 28.974396 6.366423
v -0.466846 32.394772 -3.488069
v 1.934642 31.889248 -2.892049
v 4.038229 31.385334 -2.716594
v 5.024173 31.173227 1.556640
v 4.401599 30.358494 5.778198
v 3.057438 30.491291 6.121805
v 0.813731 30.724977 6.583358
v -0.087190 30.858490 6.679921
v 1.951274 31.462156 5.953546
v 1.301107 31.413809 6.126402
v 1.875542 30.580946 6.064456
v 0.878361 30.684792 6.269938
v 2.876611 30.476664 5.858876
v 2.590456 31.281265 5.830227
v 1.823359 29.832663 6.169678
v 2.584746 29.831404 5.995308
v 1.048740 30.170153 6.291248
v -3.968894 29.267670 5.060032
v -4.673816 29.955370 5.902853
v -4.261127 34.250824 2.090677
v -3.821285 34.441177 -1.894028
v -4.325772 29.950275 -2.120588
v -5.125115 29.191259 1.447073
v -5.973836 30.410275 1.602598
v -1.159303 31.980925 6.477153
v -1.416584 30.109375 6.675109
v -3.080220 30.315536 6.433300
v -2.822934 32.187069 6.235355
v -2.330069 28.619532 5.368471
v -2.864103 28.162567 1.371979
v -2.428691 29.563208 -2.566336
v -2.731650 30.608463 -3.322786
v -1.869118 34.399868 -2.284658
v -2.095075 35.026203 2.078404
v -1.763473 33.388981 6.215236
v -1.962804 32.251053 6.324270
v -2.269810 30.106390 6.583691
v -2.081603 29.143751 6.468486
v -2.321302 32.366905 -2.994574
v -4.464212 32.356918 -2.495368
v -5.251863 32.347477 1.824013
v -4.358567 31.346035 6.004525
v -3.304693 31.218294 6.287341
v -0.951963 30.926748 6.629299
v -1.943415 32.083797 6.048273
v -1.196552 31.885061 6.184435
v -2.090834 31.034189 6.167657
v -1.043158 30.904366 6.319934
v -3.138505 31.164009 6.015385
v -2.729133 32.074982 5.961683
v -2.214204 30.196993 6.278366
v -2.967978 30.334728 6.144695
v -1.435390 30.144817 6.367456
v -3.247070 33.293556 5.920134
v -3.929099 33.596333 4.886942
v -3.516977 32.948547 5.926983
v -3.895844 32.782822 5.867456
v 4.240144 33.737461 1.871346
v 4.610611 33.492020 2.776109
v 4.571774 33.477623 0.859373
v 4.860230 32.946583 1.769580
v -4.469760 30.762911 -2.901522
v -4.868292 30.598360 -2.600973
v -5.280307 30.713362 -1.670177
v -4.902903 31.200022 -2.694668
v 1.664092 29.832064 6.504122
v 2.080640 29.743977 6.423676
v 1.778225 29.541149 6.445812
v 1.805613 29.750025 6.167640
vt 0.119407 0.239988
vt 0.106917 0.270705
vt 0.081314 0.259725
vt 0.102284 0.223063
vt 0.142613 0.267796
vt 0.160817 0.267940
vt 0.177258 0.299390
vt 0.136348 0.282473
vt 0.267212 0.288552
vt 0.252801 0.325488
vt 0.191526 0.265790
vt 0.337245 0.328001
vt 0.323586 0.361788
vt 0.356641 0.380073
vt 0.373493 0.336068
vt 0.425865 0.361953
vt 0.411295 0.394371
vt 0.387099 0.391210
vt 0.406529 0.347197
vt 0.497095 0.379775
vt 0.483213 0.420971
vt 0.564419 0.411721
vt 0.558148 0.448546
vt 0.181234 0.060669
vt 0.205729 0.059295
vt 0.175421 0.132626
vt 0.150509 0.123457
vt 0.143467 0.202097
vt 0.127931 0.190633
vt 0.170249 0.257225
vt 0.012226 0.038201
vt 0.009703 0.019648
vt 0.031065 0.026449
vt 0.025289 0.045101
vt 0.171242 0.212600
vt 0.203388 0.235513
vt 0.174472 0.243664
vt 0.161594 0.231408
vt 0.510678 0.338882
vt 0.570065 0.375196
vt 0.440483 0.328807
vt 0.424525 0.308160
vt 0.353712 0.305400
vt 0.391924 0.301117
vt 0.289128 0.242056
vt 0.301303 0.259443
vt 0.280365 0.258251
vt 0.265981 0.244072
vt 0.052509 0.033266
vt 0.039946 0.047137
vt 0.234998 0.071568
vt 0.210290 0.148169
vt 0.145358 0.230886
vt 0.036178 0.010665
vt 0.051868 0.017483
vt 0.017481 0.010665
vt 0.134167 0.258920
vt 0.159209 0.264040
vt 0.163831 0.258177
vt 0.144981 0.262885
vt 0.165692 0.254467
vt 0.169154 0.244711
vt 0.159477 0.235774
vt 0.147382 0.234897
vt 0.138545 0.243526
vt 0.131578 0.241743
vt 0.137732 0.238952
vt 0.139031 0.256972
vt 0.089801 0.299457
vt 0.067861 0.300410
vt 0.130520 0.296304
vt 0.146735 0.309332
vt 0.233190 0.371634
vt 0.163402 0.333417
vt 0.309384 0.395530
vt 0.345376 0.413654
vt 0.401000 0.428825
vt 0.376639 0.426890
vt 0.468655 0.461051
vt 0.539523 0.480927
vt 0.029270 0.401938
vt 0.064836 0.338118
vt 0.085752 0.345569
vt 0.053288 0.413585
vt 0.050676 0.498696
vt 0.088804 0.428344
vt 0.125403 0.441524
vt 0.091672 0.509762
vt 0.144707 0.325954
vt 0.102465 0.041695
vt 0.087868 0.045796
vt 0.085064 0.025377
vt 0.105484 0.022575
vt 0.104447 0.309335
vt 0.112327 0.296392
vt 0.134982 0.363666
vt 0.142384 0.359780
vt 0.151638 0.359037
vt 0.141845 0.386709
vt 0.450592 0.502237
vt 0.521991 0.509762
vt 0.390063 0.463679
vt 0.293265 0.428567
vt 0.334596 0.451520
vt 0.214992 0.408694
vt 0.064646 0.028182
vt 0.072594 0.045796
vt 0.102836 0.324690
vt 0.030095 0.467867
vt 0.028968 0.489683
vt 0.017022 0.492173
vt 0.019442 0.482828
vt 0.109507 0.354371
vt 0.115940 0.337908
vt 0.082755 0.009048
vt 0.068015 0.011981
vt 0.097889 0.007879
vt 0.141611 0.320470
vt 0.142755 0.310700
vt 0.128753 0.301647
vt 0.136170 0.340464
vt 0.133750 0.335733
vt 0.139342 0.325048
vt 0.117693 0.333183
vt 0.107251 0.323145
vt 0.109785 0.311900
vt 0.115098 0.300971
vt 0.164659 0.379728
vt 0.267157 0.083355
vt 0.254204 0.148005
vt 0.240015 0.162875
vt 0.243508 0.186610
vt 0.367213 0.458299
vt 0.370751 0.467569
vt 0.006465 0.469236
vt 0.134394 0.246682
vt 0.140085 0.244039
vt 0.356108 0.464345
vn 0.103898 -0.802137 0.588032
vn 0.111303 -0.779035 0.617022
vn 0.111303 -0.779035 0.617022
vn 0.101357 -0.809701 0.578024
vn 0.146909 0.039629 0.988356
vn 0.216513 0.042678 0.975347
vn 0.223601 0.045007 0.973641
vn 0.148075 0.039053 0.988205
vn 0.371080 0.926404 0.063838
vn 0.410481 0.906309 0.100545
vn 0.400750 0.855270 0.328502
vn 0.377152 0.864194 0.333054
vn 0.388188 0.909717 -0.147394
vn 0.398240 0.908261 -0.128325
vn 0.246780 0.233196 -0.940595
vn 0.262332 0.246690 -0.932912
vn 0.236178 0.247092 -0.939769
vn 0.214164 0.237578 -0.947465
vn 0.078087 -0.639453 -0.764854
vn 0.082807 -0.604364 -0.792394
vn 0.082807 -0.604364 -0.792394
vn 0.076409 -0.651351 -0.754919
vn 0.012960 -0.992900 -0.118245
vn 0.012652 -0.992904 -0.118242
vn 0.010896 -0.968341 -0.249392
vn 0.011095 -0.967654 -0.252036
vn 0.014448 -0.999738 0.017739
vn 0.014182 -0.999787 0.015014
vn 0.570385 -0.769753 -0.286602
vn 0.570385 -0.769753 -0.286602
vn 0.606972 -0.788867 -0.096299
vn 0.607348 -0.788927 -0.093396
vn 0.620606 -0.775340 0.117029
vn 0.620606 -0.775340 0.117029
vn 0.276854 0.075744 0.957922
vn 0.279163 0.079290 0.956965
vn 0.225728 0.083496 0.970606
vn 0.217813 0.098736 0.970983
vn 0.216221 0.104795 0.970704
vn 0.219469 0.095416 0.970943
vn 0.290570 0.038323 0.956086
vn 0.283553 0.135021 0.949404
vn 0.283602 0.134904 0.949406
vn 0.288590 0.054139 0.955921
vn 0.013267 -0.992895 -0.118249
vn 0.014865 -0.999647 0.022021
vn 0.011408 -0.966560 -0.256187
vn 0.069824 -0.695371 -0.715251
vn 0.069824 -0.695371 -0.715251
vn 0.155404 0.247199 -0.956422
vn 0.171601 0.243305 -0.954650
vn 0.785503 0.618517 -0.020559
vn 0.785503 0.618517 -0.020559
vn 0.785503 0.618517 -0.020559
vn 0.785503 0.618517 -0.020559
vn 0.214614 0.110905 0.970382
vn 0.213329 0.107020 0.971101
vn 0.093465 -0.832053 0.546765
vn 0.093465 -0.832053 0.546765
vn 0.207053 0.230186 -0.950865
vn 0.231746 0.220142 -0.947540
vn 0.177794 0.241795 -0.953900
vn 0.965377 0.151857 -0.212101
vn 0.948732 0.196718 -0.247404
vn 0.991186 0.121544 -0.052701
vn 0.998112 0.060927 -0.007812
vn 0.973852 0.035379 0.224413
vn 0.978770 -0.035448 0.201871
vn 0.282583 -0.113084 0.952554
vn 0.264059 -0.159411 0.951242
vn 0.212674 0.115672 0.970252
vn 0.215912 0.114838 0.969636
vn 0.208335 0.116787 0.971060
vn 0.152268 -0.036408 0.987668
vn 0.148469 -0.028073 0.988519
vn 0.205474 -0.900108 0.384170
vn 0.205474 -0.900108 0.384170
vn 0.205474 -0.900108 0.384170
vn 0.205474 -0.900108 0.384170
vn 0.857148 -0.476122 0.196482
vn 0.857148 -0.476122 0.196482
vn 0.857148 -0.476122 0.196482
vn 0.857148 -0.476122 0.196482
vn -0.194745 -0.867556 0.457626
vn -0.194745 -0.867556 0.457626
vn -0.194745 -0.867556 0.457626
vn -0.194745 -0.867556 0.457626
vn -0.811227 -0.292712 0.506192
vn -0.811227 -0.292712 0.506192
vn -0.811227 -0.292712 0.506192
vn -0.811227 -0.292712 0.506192
vn -0.765265 0.462313 0.447926
vn -0.765265 0.462313 0.447926
vn -0.765264 0.462313 0.447926
vn -0.765264 0.462313 0.447926
vn -0.454692 0.733139 0.505730
vn -0.454692 0.733139 0.505730
vn -0.454692 0.733139 0.505730
vn 0.934602 0.338746 0.108495
vn 0.934602 0.338746 0.108495
vn 0.934602 0.338746 0.108495
vn 0.934602 0.338746 0.108495
vn -0.273838 -0.811873 0.515630
vn -0.301323 -0.816680 0.492176
vn -0.200891 -0.794382 0.573237
vn -0.200891 -0.794382 0.573237
vn -0.089146 0.068390 0.993668
vn -0.091349 0.068008 0.993494
vn -0.157138 0.083931 0.984004
vn -0.151807 0.080738 0.985107
vn -0.140951 0.982886 0.118607
vn -0.123966 0.929584 0.347140
vn -0.086866 0.930978 0.354590
vn -0.091944 0.988558 0.119580
vn -0.124945 0.986709 -0.103897
vn -0.091590 0.987783 -0.126077
vn -0.239961 0.311086 -0.919589
vn -0.223770 0.308784 -0.924435
vn -0.217458 0.361137 -0.906803
vn -0.234375 0.374513 -0.897111
vn -0.274966 -0.615086 -0.738961
vn -0.273362 -0.622299 -0.733497
vn -0.279616 -0.593240 -0.754905
vn -0.279616 -0.593240 -0.754905
vn -0.260974 -0.960245 -0.099106
vn -0.224493 -0.926265 -0.302713
vn -0.142055 -0.945161 -0.294094
vn -0.139202 -0.983090 -0.118985
vn -0.239387 -0.965368 0.103727
vn -0.131315 -0.988835 0.070437
vn -0.749685 -0.661507 -0.019519
vn -0.710809 -0.677735 0.188217
vn -0.710809 -0.677735 0.188217
vn -0.749716 -0.661463 -0.019808
vn -0.909603 0.392717 -0.135632
vn -0.931491 0.353385 0.086274
vn -0.920987 0.387140 0.043665
vn -0.908323 0.399262 -0.124660
vn -0.181171 0.124163 0.975582
vn -0.179979 0.128956 0.975181
vn -0.135493 0.123020 0.983111
vn -0.127921 0.122097 0.984240
vn -0.127016 0.128520 0.983539
vn -0.127115 0.128398 0.983543
vn -0.219670 -0.158183 0.962665
vn -0.199920 -0.141082 0.969602
vn -0.090110 0.005015 0.995919
vn -0.107464 -0.023277 0.993937
vn -0.528559 0.610589 0.589751
vn -0.528559 0.610589 0.589751
vn -0.528559 0.610589 0.589751
vn -0.528559 0.610589 0.589751
vn -0.377991 -0.920577 -0.098291
vn -0.398082 -0.904697 0.151839
vn -0.341009 -0.887016 -0.311313
vn -0.196809 0.344669 -0.917861
vn -0.203921 0.317015 -0.926239
vn -0.204176 0.970309 0.129661
vn -0.181331 0.981224 -0.065708
vn -0.126958 0.128357 0.983568
vn -0.120372 0.121170 0.985306
vn -0.285112 -0.038990 0.957701
vn -0.272386 -0.110669 0.955803
vn -0.372481 -0.824178 0.426601
vn -0.372481 -0.824178 0.426601
vn -0.234378 0.225047 -0.945738
vn -0.245708 0.224268 -0.943044
vn -0.825399 -0.132925 -0.548678
vn -0.825399 -0.132925 -0.548678
vn -0.825399 -0.132925 -0.548678
vn -0.825399 -0.132925 -0.548678
vn -0.943122 0.298962 0.145404
vn -0.923036 0.260176 0.283396
vn -0.916363 0.295783 0.269800
vn -0.267869 0.096371 0.958624
vn -0.269968 0.091545 0.958508
vn -0.125954 0.136325 0.982625
vn -0.135328 0.137493 0.981215
vn -0.116561 0.135143 0.983946
vn -0.333004 -0.851746 0.404522
vn -0.333004 -0.851746 0.404521
vn -0.333004 -0.851746 0.404521
vn -0.333004 -0.851746 0.404522
vn -0.962791 -0.137820 0.232461
vn -0.962791 -0.137820 0.232461
vn -0.962791 -0.137820 0.232461
vn -0.962791 -0.137820 0.232461
vn -0.008695 -0.892172 0.451612
vn -0.008695 -0.892172 0.451612
vn -0.008695 -0.892172 0.451612
vn -0.008695 -0.892172 0.451612
vn 0.799059 -0.351378 0.487892
vn 0.799059 -0.351378 0.487892
vn 0.799059 -0.351378 0.487892
vn 0.799059 -0.351378 0.487892
vn 0.870202 0.264515 0.415669
vn 0.870202 0.264515 0.415669
vn 0.870202 0.264515 0.415669
vn 0.870202 0.264515 0.415669
vn 0.171656 0.958934 0.225785
vn 0.171656 0.958934 0.225785
vn 0.171656 0.958934 0.225785
vn 0.171656 0.958934 0.225785
vn 0.007198 0.979396 0.201822
vn 0.007198 0.979396 0.201822
vn 0.007198 0.979396 0.201822
vn 0.007198 0.979396 0.201822
vn -0.862676 0.478456 0.163924
vn -0.862676 0.478456 0.163924
vn -0.862676 0.478456 0.163924
vn -0.862676 0.478456 0.163924
vn -0.235183 0.168763 0.957188
vn -0.203192 0.167746 0.964663
vn -0.223213 0.184193 0.957209
vn -0.176450 0.169418 0.969620
vn -0.217781 0.920057 0.325680
vn -0.901468 0.357316 0.244294
vn -0.901043 0.318292 0.294638
vn 0.928538 0.241278 -0.282138
vn 0.928538 0.241278 -0.282138
vn 0.980009 0.178700 -0.087462
vn 0.319813 0.947453 0.007240
vn 0.374114 0.911023 -0.173424
vn 0.374114 0.911023 -0.173424
vn 0.414374 0.795436 0.442240
vn 0.229864 0.927364 0.295226
vn 0.972553 0.118796 0.200072
vn -0.213479 0.230873 -0.949276
vn -0.227033 -0.695425 -0.681792
vn -0.263788 -0.654796 -0.708279
vn -0.265252 -0.653104 -0.709293
vn -0.747062 -0.613971 -0.254830
vn -0.749456 -0.610419 -0.256328
vn -0.913435 0.372032 -0.165013
vn 0.147977 -0.209402 0.966568
vn 0.187998 -0.121592 0.974614
vn 0.206659 -0.171623 0.963243
vn 0.229949 -0.239919 0.943166
vn 0.018821 0.972526 0.232035
vn -0.044524 0.955142 0.292784
vn -0.674381 0.126877 0.727401
vn 0.437785 0.884373 0.161951
vn 0.500780 0.843746 0.193165
vn 0.432470 0.887459 0.159333
vn 0.432470 0.887459 0.159333
vn 0.904769 0.293011 0.309091
vn 0.904769 0.293011 0.309091
vn 0.904769 0.293011 0.309091
vn -0.130538 0.924864 0.357192
vn -0.218584 0.240533 -0.945709
vn -0.668743 -0.713858 -0.207821
vn -0.916951 0.364241 -0.162879
vn 0.847732 0.336377 0.410124
vn 0.024013 0.973607 0.226966
vn 0.024013 0.973607 0.226966
vn 0.884690 -0.200362 0.420925
s 1
g player1
usemtl initialShadingGroup
f 29/1/1 4/2/2 2/3/3 21/4/4
s 2
f 36/5/5 17/6/6 6/7/7 37/8/8
s 3
f 26/9/9 7/10/10 6/7/11 27/11/12
f 25/12/13 9/13/14 7/10/10 26/9/9
s 4
f 30/14/15 9/13/16 25/12/17 31/15/18
s 5
f 23/16/19 13/17/20 11/18/21 24/19/22
s 6
f 22/20/23 15/21/24 13/17/25 23/16/26
f 21/22/27 2/23/28 15/21/24 22/20/23
s 7
f 12/24/29 10/25/30 16/26/31 14/27/32
f 14/27/32 16/26/31 3/28/33 1/29/34
s 2
f 27/11/35 6/7/7 17/6/6 28/30/36
s 8
f 39/31/37 41/32/38 40/33/39 38/34/40
s 2
f 34/35/41 5/36/42 20/37/43 35/38/44
s 6
f 14/39/45 1/40/46 21/22/27 22/20/23
f 12/41/47 14/39/45 22/20/23 23/16/26
s 5
f 10/42/48 12/41/49 23/16/19 24/19/22
s 4
f 8/43/50 32/44/51 31/15/18 25/12/17
s off
f 90/45/52 89/46/53 87/47/54 88/48/55
s 2
f 5/36/42 27/11/35 28/30/36 20/37/43
s 8
f 42/49/56 43/50/57 38/34/40 40/33/39
s 1
f 1/29/58 3/28/59 29/1/1 21/4/4
s 4
f 24/19/60 11/18/61 30/14/15 31/15/18
f 32/44/51 10/42/62 24/19/60 31/15/18
s 9
f 10/25/63 32/51/64 33/52/65 16/26/66
f 16/26/66 33/52/65 34/35/67 3/28/68
s 2
f 3/28/69 34/35/41 35/38/44 19/53/70
s 8
f 44/54/71 45/55/72 42/49/56 40/33/39
f 41/32/38 46/56/73 44/54/71 40/33/39
s 2
f 18/57/74 36/5/5 37/8/8 4/2/75
s off
f 17/6/76 39/58/77 38/59/78 28/30/79
f 36/5/80 41/60/81 39/58/82 17/6/83
f 28/30/84 38/61/85 43/62/86 20/37/87
f 20/37/88 43/62/89 42/63/90 35/38/91
f 35/38/92 42/63/93 45/64/94 19/53/95
f 98/65/96 97/66/97 96/67/98
f 18/57/99 46/68/100 41/60/101 36/5/102
s 10
f 67/69/103 58/70/104 2/3/105 4/2/106
s 11
f 73/71/107 37/8/108 6/7/109 54/72/110
s 12
f 63/73/111 64/74/112 6/7/113 7/10/114
f 62/75/115 63/73/111 7/10/114 9/13/116
s 13
f 30/14/117 68/76/118 62/75/119 9/13/120
s 14
f 60/77/121 61/78/122 11/18/123 13/17/124
s 15
f 59/79/125 60/77/126 13/17/127 15/21/128
f 58/80/129 59/79/125 15/21/128 2/23/130
s 16
f 52/81/131 47/82/132 48/83/133 53/84/134
s 17
f 69/85/135 70/86/136 49/87/137 50/88/138
s 11
f 64/74/139 65/89/140 54/72/110 6/7/109
s 18
f 75/90/141 74/91/142 76/92/143 77/93/144
s 11
f 66/94/145 67/69/146 4/2/147 55/95/148
s off
f 86/96/149 85/97/150 83/98/151 84/99/152
s 15
f 52/100/153 59/79/125 58/80/129 47/101/154
f 51/102/155 60/77/126 59/79/125 52/100/153
s 13
f 50/103/156 62/75/119 68/76/118 69/104/157
s 12
f 49/105/158 63/73/111 62/75/115 50/103/159
s 18
f 78/106/160 76/92/143 74/91/142 79/107/161
s 11
f 48/83/162 67/69/146 66/94/145 56/108/163
s 10
f 47/82/164 58/70/104 67/69/103 48/83/165
s 13
f 61/78/166 68/76/118 30/14/117 11/18/167
s off
f 93/109/168 94/110/169 91/111/170 92/112/171
s 17
f 53/84/172 48/83/173 71/113/174 70/86/136
s 11
f 48/83/162 56/108/163 72/114/175 71/113/176
s 18
f 80/115/177 76/92/143 78/106/160 81/116/178
f 77/93/144 76/92/143 80/115/177 82/117/179
s 11
f 55/95/148 4/2/147 37/8/108 73/71/107
s off
f 54/72/180 65/89/181 74/118/182 75/119/183
f 73/71/184 54/72/185 75/119/186 77/120/187
f 65/89/188 57/121/189 79/122/190 74/123/191
f 57/121/192 72/114/193 78/124/194 79/122/195
f 72/114/196 56/108/197 81/125/198 78/124/199
f 56/108/200 66/94/201 80/126/202 81/125/203
f 66/94/204 55/95/205 82/127/206 80/126/207
f 55/95/208 73/71/209 77/120/210 82/127/211
s 11
f 86/96/212 57/121/213 85/97/214
f 83/98/215 57/121/213 65/89/140 64/74/139
s 12
f 84/128/216 64/74/112 63/73/111 49/105/158
s 17
f 84/99/217 71/113/174 86/96/218
s 9
f 32/51/64 8/129/219 89/130/220 90/131/221 33/52/65
s 3
f 87/47/222 89/46/223 8/43/224 25/12/13 26/9/9
f 5/36/225 88/48/226 27/11/12
s 9
f 33/52/65 90/131/221 88/132/227 34/35/67
s 13
f 91/133/228 68/76/118 61/78/166
s 14
f 92/134/229 91/133/230 51/102/231
s 16
f 51/135/232 52/81/131 53/84/134 93/109/233
s 17
f 94/110/234 70/86/136 69/85/135
s 2
f 97/66/235 95/136/236 29/1/237
f 3/28/69 19/53/70 96/67/238 29/1/237
s 20
f 96/67/239 44/137/240 98/65/241
s 21
f 95/136/242 44/137/243 46/68/244 18/57/245
s off
f 98/65/246 95/136/247 97/66/248
s 3
f 27/11/12 88/48/226 87/47/222 26/9/9
s 12
f 84/128/216 83/98/249 64/74/112
s 17
f 70/86/136 71/113/174 84/99/217 49/87/137
s 11
f 71/113/176 72/114/175 57/121/213 86/96/212
f 83/98/215 85/97/214 57/121/213
s 13
f 69/104/157 68/76/118 94/138/250
f 94/138/250 68/76/118 91/133/228
s 14
f 51/102/231 91/133/230 61/78/122 60/77/121
s 16
f 51/135/232 93/109/233 92/112/251
s 17
f 70/86/136 93/109/252 53/84/172
f 94/110/234 93/109/252 70/86/136
s 9
f 34/35/67 88/132/227 5/36/253
s 2
f 29/1/237 95/136/236 18/57/74 4/2/75
f 29/1/237 96/67/238 97/66/235
s 20
f 19/53/254 45/64/255 44/137/240 96/67/239
s 21
f 95/136/242 98/65/256 44/137/243
