# This file uses centimeters as units for non-parametric coordinates.

mtllib GolemPart25.mtl
g default
v 6.407175 2.207366 -1.461906
v 6.435713 2.442727 -2.039853
v 6.143173 8.604716 -0.456430
v 6.209740 9.153705 -1.804511
v 4.638139 8.525383 -0.561007
v 4.704705 9.074371 -1.909087
v 5.761939 2.173354 -1.506740
v 5.790477 2.408716 -2.084687
v 5.378624 8.465816 -0.265045
v 5.469254 9.213272 -2.100473
v 6.118254 2.468265 -2.166738
v 6.079399 2.147817 -1.379856
v 6.538075 2.331194 -1.742775
v 6.113764 2.140787 -1.777511
v 5.659577 2.284886 -1.803817
v 4.399378 8.785538 -1.253950
v 5.399427 9.113988 -1.175841
v 6.448501 8.893551 -1.111567
v 7.009824 5.864408 -0.395215
v 7.542843 6.368633 -1.538907
v 7.126031 6.822792 -2.748597
v 5.833345 6.926780 -3.265268
v 4.498648 6.684299 -2.931161
v 3.965629 6.180072 -1.787468
v 4.382441 5.725913 -0.577777
v 5.675128 5.621926 -0.061107
vt 0.022085 0.185158
vt 0.024790 0.131078
vt 0.042616 0.143005
vt 0.039062 0.190455
vt 0.072533 0.212579
vt 0.052856 0.206904
vt 0.055947 0.192019
vt 0.071960 0.197575
vt 0.084715 0.152748
vt 0.105928 0.148807
vt 0.089623 0.198992
vt 0.080267 0.061473
vt 0.088928 0.065590
vt 0.085353 0.070632
vt 0.078439 0.070286
vt 0.062981 0.150645
vt 0.060192 0.279287
vt 0.034329 0.275488
vt 0.048687 0.225586
vt 0.063601 0.225405
vt 0.032212 0.203651
vt 0.070894 0.061621
vt 0.071979 0.067717
vt 0.009593 0.267840
vt 0.034871 0.219001
vt 0.016967 0.342060
vt 0.015327 0.348696
vt 0.006542 0.346033
vt 0.010573 0.341265
vt 0.023041 0.344099
vt 0.024614 0.350129
vt 0.105896 0.200157
vt 0.128015 0.141507
vt 0.006496 0.117057
vt 0.006368 0.181183
vt 0.063359 0.058399
vt 0.066916 0.063534
vt 0.091637 0.068766
vt 0.096769 0.065203
vn 0.915562 0.370236 0.157069
vn 0.998282 0.041481 0.041390
vn 0.951100 0.141332 -0.274651
vn 0.896940 0.414704 -0.153356
vn -0.242231 0.897795 0.367816
vn -0.075213 0.928382 0.363937
vn -0.063445 0.978931 0.194083
vn -0.241334 0.954145 0.177103
vn -0.896635 -0.050031 -0.439935
vn -0.980986 -0.144102 -0.130005
vn -0.985417 0.168661 -0.022524
vn -0.917698 0.220452 -0.330502
vn 0.075700 -0.931354 -0.356160
vn -0.157497 -0.902532 -0.400788
vn -0.128376 -0.810352 -0.571708
vn 0.080935 -0.816775 -0.571252
vn 0.024832 0.456916 -0.889163
vn 0.068076 0.077974 -0.994628
vn -0.245428 0.015358 -0.969293
vn -0.290119 0.397316 -0.870615
vn -0.377399 -0.156705 0.912696
vn -0.058015 -0.165268 0.984541
vn -0.082231 0.062753 0.994636
vn -0.369041 0.028142 0.928987
vn -0.075213 0.928382 0.363937
vn 0.091863 0.915825 0.390929
vn 0.111001 0.972549 0.204516
vn -0.063445 0.978931 0.194083
vn 0.374429 0.055780 -0.925576
vn 0.068076 0.077974 -0.994628
vn 0.024832 0.456916 -0.889163
vn 0.360147 0.468355 -0.806807
vn 0.308668 -0.876790 -0.368731
vn 0.075700 -0.931354 -0.356160
vn 0.080935 -0.816775 -0.571252
vn 0.293296 -0.785816 -0.544492
vn -0.082231 0.062753 0.994636
vn -0.058015 -0.165268 0.984541
vn 0.259447 -0.105334 0.959996
vn 0.225831 0.093084 0.969709
vn 0.056862 -0.992100 -0.111819
vn 0.075700 -0.931354 -0.356160
vn 0.308668 -0.876790 -0.368731
vn 0.309201 -0.946945 -0.087692
vn -0.188639 -0.973670 -0.127996
vn -0.157497 -0.902532 -0.400788
vn 0.075700 -0.931354 -0.356160
vn 0.056862 -0.992100 -0.111819
vn -0.932173 0.083032 0.352363
vn -0.985417 0.168661 -0.022524
vn -0.980986 -0.144102 -0.130005
vn -0.945187 -0.216586 0.244361
vn -0.079990 0.850582 0.519723
vn -0.075213 0.928382 0.363937
vn -0.242231 0.897795 0.367816
vn -0.236521 0.831306 0.502980
vn 0.074845 0.848758 0.523458
vn 0.091863 0.915825 0.390929
vn -0.075213 0.928382 0.363937
vn -0.079990 0.850582 0.519723
vn 0.911562 -0.034253 0.409733
vn 0.998282 0.041481 0.041390
vn 0.915562 0.370236 0.157069
vn 0.821223 0.270938 0.502181
vn 0.915734 -0.244010 0.319202
vn 0.969901 -0.242491 0.022151
vn 0.998282 0.041481 0.041390
vn 0.911562 -0.034253 0.409733
vn 0.951100 0.141332 -0.274651
vn 0.998282 0.041481 0.041390
vn 0.969901 -0.242491 0.022151
vn 0.899345 -0.204293 -0.386579
vn 0.349280 -0.203065 -0.914750
vn 0.083866 -0.233336 -0.968773
vn 0.068076 0.077974 -0.994628
vn 0.374429 0.055780 -0.925576
vn -0.245428 0.015358 -0.969293
vn 0.068076 0.077974 -0.994628
vn 0.083866 -0.233336 -0.968773
vn -0.192996 -0.246347 -0.949772
vn -0.908688 -0.394600 -0.136299
vn -0.980986 -0.144102 -0.130005
vn -0.896635 -0.050031 -0.439935
vn -0.786205 -0.339741 -0.516195
vn -0.945187 -0.216586 0.244361
vn -0.980986 -0.144102 -0.130005
vn -0.908688 -0.394600 -0.136299
vn -0.904414 -0.394001 0.163705
vn -0.370548 -0.367001 0.853232
vn -0.038618 -0.358546 0.932713
vn -0.058015 -0.165268 0.984541
vn -0.377399 -0.156705 0.912696
vn 0.259447 -0.105334 0.959996
vn -0.058015 -0.165268 0.984541
vn -0.038618 -0.358546 0.932713
vn 0.283602 -0.311293 0.907010
s off
g player25
usemtl playerSG
f 18/1/1 20/2/2 21/3/3 4/4/4
f 16/5/5 17/6/6 10/7/7 6/8/8
f 23/9/9 24/10/10 16/11/11 6/8/12
f 14/12/13 15/13/14 8/14/15 11/15/16
f 10/7/17 22/16/18 23/9/19 6/8/20
f 25/17/21 26/18/22 9/19/23 5/20/24
f 17/6/25 18/21/26 4/4/27 10/7/28
f 21/3/29 22/16/30 10/7/31 4/4/32
f 13/22/33 14/12/34 11/15/35 2/23/36
f 9/19/37 26/18/38 19/24/39 3/25/40
f 12/26/41 14/27/42 13/28/43 1/29/44
f 7/30/45 15/31/46 14/27/47 12/26/48
f 5/32/49 16/11/50 24/10/51 25/33/52
f 9/19/53 17/6/54 16/5/55 5/20/56
f 3/25/57 18/21/58 17/6/59 9/19/60
f 19/34/61 20/2/62 18/1/63 3/35/64
f 1/36/65 13/37/66 20/2/67 19/34/68
f 21/3/69 20/2/70 13/37/71 2/23/72
f 2/23/73 11/15/74 22/16/75 21/3/76
f 23/9/77 22/16/78 11/15/79 8/14/80
f 15/38/81 24/10/82 23/9/83 8/14/84
f 25/33/85 24/10/86 15/38/87 7/39/88
f 7/30/89 12/26/90 26/18/91 25/17/92
f 19/24/93 26/18/94 12/26/95 1/29/96
