# This file uses centimeters as units for non-parametric coordinates.

mtllib GolemPart12.mtl
g default
v -11.357745 6.611300 -1.983286
v -10.982531 6.734332 -2.025180
v -12.265543 8.163357 -2.850471
v -11.340509 8.427898 -2.935491
v -12.271551 8.510930 -1.816988
v -11.346520 8.775471 -1.902006
v -11.358924 6.755422 -1.559105
v -10.983709 6.878455 -1.600999
v -12.435753 8.289328 -2.318362
v -11.176310 8.649502 -2.434116
v -10.915298 6.828632 -1.820662
v -11.426155 6.661122 -1.763623
v -11.169927 6.646765 -2.080906
v -11.124179 6.614524 -1.743460
v -11.171528 6.842990 -1.503379
v -11.810124 8.706026 -1.672688
v -11.880367 8.694474 -2.459893
v -11.801939 8.232801 -3.079789
v -11.869254 7.360312 -2.475794
v -11.489075 7.421472 -2.666556
v -11.110414 7.586360 -2.549793
v -10.975351 7.770683 -2.137836
v -11.114620 7.873289 -1.699128
v -11.494801 7.812131 -1.508366
v -11.873458 7.647243 -1.625129
v -12.008520 7.462918 -2.037086
vt 0.194769 0.440114
vt 0.204525 0.440444
vt 0.204171 0.458598
vt 0.196525 0.457851
vt 0.158905 0.440073
vt 0.159383 0.429729
vt 0.168316 0.424705
vt 0.172161 0.435313
vt 0.161420 0.473583
vt 0.149831 0.459615
vt 0.157254 0.453259
vt 0.166927 0.468214
vt 0.155305 0.387974
vt 0.157026 0.392592
vt 0.152707 0.393287
vt 0.149899 0.390132
vt 0.154521 0.412004
vt 0.162911 0.409326
vt 0.173139 0.463991
vt 0.165607 0.447883
vt 0.175664 0.445715
vt 0.180985 0.460947
vt 0.178414 0.423028
vt 0.185245 0.430818
vt 0.171115 0.406152
vt 0.160990 0.386205
vt 0.160812 0.390411
vt 0.184879 0.441132
vt 0.189026 0.458434
vt 0.153613 0.383032
vt 0.158224 0.383025
vt 0.150030 0.385924
vt 0.191430 0.477109
vt 0.195459 0.476754
vt 0.199350 0.477271
vt 0.179528 0.482328
vt 0.176819 0.485176
vt 0.182889 0.480090
vt 0.187052 0.478302
vn 0.032495 -0.443601 -0.895635
vn 0.395463 -0.291152 -0.871114
vn 0.411343 -0.345918 -0.843290
vn 0.063713 -0.494760 -0.866691
vn -0.281008 0.955697 -0.087621
vn -0.039395 0.993527 -0.106549
vn -0.037868 0.947576 -0.317278
vn -0.288044 0.906713 -0.308063
vn 0.405620 0.236479 0.882921
vn 0.388410 0.296702 0.872414
vn 0.024938 0.189317 0.981599
vn 0.058088 0.131755 0.989579
vn 0.326502 -0.893911 0.307116
vn 0.633428 -0.733269 0.247155
vn 0.607287 -0.602652 0.517699
vn 0.311434 -0.747877 0.586250
vn 0.977289 0.202388 -0.062815
vn 0.929506 0.289831 0.228071
vn 0.940424 0.238049 0.242766
vn 0.988394 0.145333 -0.044221
vn -0.833007 -0.348899 0.429381
vn -0.857784 -0.302555 0.415533
vn -0.898118 -0.418276 0.135758
vn -0.870959 -0.466874 0.153163
vn -0.034470 0.854602 -0.518138
vn -0.278480 0.811928 -0.513052
vn 0.943204 0.045065 -0.329145
vn 0.932567 0.095676 -0.348088
vn 0.313095 -0.949719 -0.002386
vn 0.604167 -0.796098 -0.034786
vn -0.854863 -0.494847 -0.156002
vn -0.830543 -0.539690 -0.137597
vn -0.021582 -0.947465 0.319129
vn -0.017843 -0.999366 0.030812
vn -0.023497 -0.808516 0.588005
vn -0.320178 0.061616 0.945352
vn -0.297003 0.007154 0.954850
vn -0.519958 0.809344 -0.273141
vn -0.507207 0.859501 -0.063235
vn -0.507686 0.718164 -0.475915
vn -0.291370 -0.573381 -0.765727
vn -0.313170 -0.524102 -0.791986
vn -0.254685 -0.647234 -0.718487
vn 0.092572 -0.575877 -0.812279
vn 0.431823 -0.424491 -0.795824
vn 0.954495 -0.038757 -0.295698
vn 0.998154 0.058527 -0.016212
vn 0.952252 0.150808 0.265468
vn 0.090203 0.035292 0.995298
vn 0.428037 0.145816 0.891920
vn -0.257995 -0.079408 0.962877
vn -0.788412 -0.420657 0.448836
vn -0.823820 -0.538080 0.178299
vn -0.786686 -0.607940 -0.107399
s 1
g player12
usemtl initialShadingGroup
f 18/1/1 4/2/2 21/3/3 20/4/4
s 2
f 16/5/5 6/6/6 10/7/7 17/8/8
s 3
f 23/9/9 6/10/10 16/11/11 24/12/12
s 4
f 14/13/13 11/14/14 8/15/15 15/16/16
s 5
f 10/7/17 6/6/18 23/17/19 22/18/20
s 6
f 25/19/21 5/20/22 9/21/23 26/22/24
s 2
f 17/8/8 10/7/7 4/23/25 18/24/26
s 5
f 21/25/27 4/23/28 10/7/17 22/18/20
s 4
f 13/26/29 2/27/30 11/14/14 14/13/13
s 6
f 9/21/23 3/28/31 19/29/32 26/22/24
s 4
f 12/30/33 1/31/34 13/26/29 14/13/13
f 7/32/35 12/30/33 14/13/13 15/16/16
s 3
f 5/20/36 25/19/37 24/12/12 16/11/11
s 2
f 9/21/38 5/20/39 16/5/5 17/8/8
f 3/28/40 9/21/38 17/8/8 18/24/26
s 1
f 19/29/41 3/28/42 18/1/1 20/4/4
f 1/33/43 19/29/41 20/4/4 13/34/44
f 21/3/3 2/35/45 13/34/44 20/4/4
s 5
f 2/27/46 21/25/27 22/18/20 11/14/47
f 23/17/19 8/15/48 11/14/47 22/18/20
s 3
f 15/36/49 8/37/50 23/9/9 24/12/12
f 25/19/37 7/38/51 15/36/49 24/12/12
s 6
f 7/38/52 25/19/21 26/22/24 12/39/53
f 19/29/32 1/33/54 12/39/53 26/22/24
