# This file uses centimeters as units for non-parametric coordinates.

mtllib GolemPart2.mtl
g default
v -13.122399 31.468014 -1.725880
v -7.457685 28.098068 -2.418385
v -8.751758 26.483881 -2.658639
v -7.519083 27.836048 -0.312756
v -8.813155 26.221863 -0.553011
v -12.593930 32.047710 -0.720155
v -13.148725 31.355680 -0.823156
v -7.254472 28.258833 -1.322143
v -9.016367 26.061094 -1.649252
v -13.235843 31.286757 -1.293137
v -12.480488 32.228970 -1.152900
v -12.840246 31.834335 -1.837553
v -12.965804 31.884974 -1.212665
v -12.876084 31.681393 -0.608483
v -8.177216 26.981594 -0.052278
v -7.958797 26.951395 -1.502683
v -8.093621 27.338335 -2.919117
v -9.110979 30.391756 -3.109821
v -10.221155 29.065472 -3.983963
v -11.370081 27.573828 -3.529242
v -11.832021 26.835760 -1.767125
v -11.477270 27.116413 0.146616
v -10.367096 28.442703 1.020759
v -9.218168 29.934345 0.566033
v -8.756229 30.672411 -1.196083
v -12.659185 31.919661 -1.931790
v -11.919498 31.787258 -2.184140
v -12.395195 32.188347 -1.429393
v -12.535084 31.893452 -1.695613
vt 0.641473 0.576171
vt 0.623103 0.589658
vt 0.573838 0.545760
vt 0.605132 0.533397
vt 0.717602 0.554465
vt 0.721054 0.575642
vt 0.707141 0.592525
vt 0.694210 0.570789
vt 0.738775 0.459363
vt 0.747012 0.522722
vt 0.725608 0.530802
vt 0.711408 0.479150
vt 0.623993 0.430625
vt 0.622046 0.419278
vt 0.630890 0.419810
vt 0.635632 0.427551
vt 0.601748 0.284401
vt 0.622261 0.279412
vt 0.643391 0.331297
vt 0.607818 0.335804
vt 0.685281 0.494889
vt 0.702695 0.540356
vt 0.681771 0.549240
vt 0.658257 0.507797
vt 0.685646 0.596735
vt 0.668526 0.583526
vt 0.573134 0.343819
vt 0.579900 0.285824
vt 0.612230 0.431788
vt 0.613931 0.422834
vt 0.662925 0.563309
vt 0.632655 0.521010
vt 0.634438 0.436366
vt 0.625851 0.441478
vt 0.592287 0.450742
vt 0.601693 0.449951
vt 0.642043 0.430029
vt 0.647946 0.422610
vt 0.614340 0.464519
vt 0.611950 0.449506
vt 0.621469 0.445742
vt 0.614480 0.437868
vt 0.610121 0.435362
vt 0.620620 0.442814
vt 0.605673 0.451611
vn 0.352693 -0.136310 -0.925758
vn 0.141845 -0.387002 -0.911103
vn -0.221258 -0.124439 -0.967243
vn -0.017222 0.069208 -0.997454
vn 0.775529 -0.627287 0.071170
vn 0.685088 -0.726104 0.058542
vn 0.694745 -0.715921 -0.069189
vn 0.781181 -0.621930 -0.054402
vn -0.323605 -0.316765 0.891594
vn 0.026576 -0.565532 0.824298
vn 0.237646 -0.317896 0.917860
vn -0.124746 -0.081612 0.988827
vn -0.772984 0.633881 0.026277
vn -0.879200 0.475245 0.033896
vn -0.871425 0.448068 0.199634
vn -0.780457 0.582393 0.227388
vn -0.258778 -0.958625 -0.118627
vn -0.267847 -0.944897 0.188224
vn -0.708903 -0.667016 0.229229
vn -0.729942 -0.674735 -0.109166
vn 0.590253 0.677677 0.438583
vn 0.786568 0.468395 0.402388
vn 0.847243 0.522030 0.098312
vn 0.656411 0.739260 0.150397
vn 0.692999 -0.694169 -0.194634
vn 0.782839 -0.596354 -0.177550
vn -0.689128 -0.586093 -0.426142
vn -0.223405 -0.876796 -0.425815
vn -0.624459 0.774934 -0.097613
vn -0.861844 0.489053 -0.134359
vn 0.821113 0.522861 -0.228889
vn 0.661692 0.714449 -0.227434
vn -0.648115 0.718676 0.251898
vn -0.630749 0.771372 -0.084503
vn 0.416021 -0.043539 0.908312
vn 0.123109 0.201410 0.971740
vn 0.854360 -0.518159 -0.039752
vn 0.844558 -0.529244 0.081378
vn 0.851500 -0.499503 -0.159516
vn 0.318349 0.321334 -0.891851
vn 0.520990 0.120813 -0.844969
vn -0.526570 0.150520 -0.836701
vn -0.495105 0.186187 -0.848649
vn -0.906033 -0.249343 -0.341954
vn -0.953616 -0.293769 -0.065701
vn -0.923998 -0.314577 0.217414
vn -0.353170 0.187492 0.916579
vn -0.584271 -0.044999 0.810310
vn -0.118135 0.371699 0.920806
vn 0.350890 0.827382 0.438538
vn 0.373589 0.878201 0.298654
vn -0.355821 0.713586 -0.603479
vn -0.355821 0.713586 -0.603479
vn -0.355821 0.713585 -0.603479
vn -0.387868 0.891168 -0.235327
vn -0.177448 0.983726 -0.028212
vn -0.208976 0.434745 -0.875971
vn 0.386044 0.903831 -0.184556
vn 0.388137 0.904579 -0.176316
vn -0.544122 0.737025 -0.400907
vn 0.180840 0.983412 0.014094
vn 0.180840 0.983412 0.014094
vn 0.180840 0.983412 0.014094
vn -0.311637 0.364680 -0.877434
s 1
g player2
usemtl initialShadingGroup
f 17/1/1 3/2/2 20/3/3 19/4/4
s 2
f 15/5/5 5/6/6 9/7/7 16/8/8
s 3
f 22/9/9 5/10/10 15/11/11 23/12/12
s 4
f 13/13/13 10/14/14 7/15/15 14/16/16
s 5
f 9/17/17 5/18/18 22/19/19 21/20/20
s 6
f 24/21/21 4/22/22 8/23/23 25/24/24
s 2
f 16/8/8 9/7/7 3/25/25 17/26/26
s 5
f 20/27/27 3/28/28 9/17/17 21/20/20
s 4
f 12/29/29 1/30/30 10/14/14 13/13/13
s 6
f 8/23/23 2/31/31 18/32/32 25/24/24
s 4
f 6/33/33 11/34/34 13/13/13 14/16/16
s 3
f 4/22/35 24/21/36 23/12/12 15/11/11
s 2
f 8/23/37 4/22/38 15/5/5 16/8/8
f 2/31/39 8/23/37 16/8/8 17/26/26
s 1
f 18/32/40 2/31/41 17/1/1 19/4/4
f 20/3/3 1/35/42 12/36/43 19/4/4
s 5
f 1/30/44 20/27/27 21/20/20 10/14/45
f 22/19/19 7/15/46 10/14/45 21/20/20
s 3
f 14/37/47 7/38/48 22/9/9 23/12/12
f 24/21/36 6/33/49 14/37/47 23/12/12
s 6
f 6/33/50 24/21/21 25/24/24 11/34/51
s off
f 27/39/52 29/40/53 28/41/54
s 4
f 29/42/55 26/43/56 12/29/29 13/13/13
s 1
f 27/39/57 18/32/40 19/4/4
s 6
f 25/24/24 27/39/58 28/41/59 11/34/51
s 4
f 11/34/34 28/44/60 29/42/55 13/13/13
s off
f 27/39/61 26/45/62 29/40/63
s 6
f 18/32/32 27/39/58 25/24/24
s 1
f 19/4/4 12/36/43 26/45/64 27/39/57
